<svg xmlns="http://www.w3.org/2000/svg" viewBox="0 0 1800 2100" width="240" height="280">
  <defs>
    <radialGradient id="radial-gradient" cx="900" cy="921.6" r="910.2" gradientTransform="matrix(1 0 0 1.3 1 -148)" gradientUnits="userSpaceOnUse">
      <stop offset="0" stop-color="#ed1c24"/>
      <stop offset="1" stop-color="#f0f"/>
    </radialGradient>
    <radialGradient id="radial-gradient-2" cx="900" cy="921.6" r="910.2" gradientTransform="matrix(1 0 0 1.3 1 -148)" gradientUnits="userSpaceOnUse">
      <stop offset="0" stop-color="#93278f"/>
      <stop offset="1" stop-color="#f0f"/>
    </radialGradient>
    <radialGradient id="radial-gradient-3" cx="900" cy="1080.9" r="1067.7" gradientTransform="matrix(.85 0 0 1.11 133 -147)" gradientUnits="userSpaceOnUse">
      <stop offset="0" stop-color="#662d91"/>
      <stop offset="1" stop-color="#29abe2"/>
    </radialGradient>
    <radialGradient id="radial-gradient-4" cx="900" cy="921.6" r="910.2" gradientTransform="matrix(1 0 0 1.3 1 -148)" gradientUnits="userSpaceOnUse">
      <stop offset="0" stop-color="#006837"/>
      <stop offset="1" stop-color="#0ff"/>
    </radialGradient>
    <radialGradient id="radial-gradient-5" cx="900" cy="921.6" r="910.2" gradientTransform="matrix(1 0 0 1.3 1 -147)" gradientUnits="userSpaceOnUse">
      <stop offset="0" stop-color="#0071bc"/>
      <stop offset="1" stop-color="#0f0"/>
    </radialGradient>
    <radialGradient id="radial-gradient-6" cx="900" cy="921.6" r="910.2" gradientTransform="matrix(1 0 0 1.3 1 -148)" gradientUnits="userSpaceOnUse">
      <stop offset="0" stop-color="#39b54a"/>
      <stop offset="1" stop-color="#fcee21"/>
    </radialGradient>
    <radialGradient id="radial-gradient-7" cx="900" cy="921.6" r="910.2" gradientTransform="matrix(1 0 0 1.3 1 -148)" gradientUnits="userSpaceOnUse">
      <stop offset="0" stop-color="red"/>
      <stop offset="1" stop-color="#fbb03b"/>
    </radialGradient>
    <linearGradient id="linear-gradient" x1="942" x2="942" y1="2090" y2="48.8" gradientUnits="userSpaceOnUse">
      <stop offset="0" stop-color="#603813"/>
      <stop offset=".2" stop-color="#9b6727"/>
      <stop offset=".6" stop-color="#ffb54a"/>
      <stop offset=".7" stop-color="#fbb446"/>
      <stop offset=".8" stop-color="#efb03a"/>
      <stop offset=".9" stop-color="#dcab27"/>
      <stop offset="1" stop-color="#cfa71a"/>
    </linearGradient>
  </defs>
  <style>
    @keyframes gradient{0%{fill:url(#radial-gradient)}16%{fill:url(#radial-gradient-2)}32%{fill:url(#radial-gradient-3)}48%{fill:url(#radial-gradient-4)}64%{fill:url(#radial-gradient-5)}80%{fill:url(#radial-gradient-6)}96%{fill:url(#radial-gradient-7)}}
  </style>
  <path style="animation:gradient 10s alternate linear infinite" fill="url(#radial-gradient)" d="M1 1h1799v2099H1z"/>
  <path fill="#fff" d="M720 1380c7-25 24-2 37 6 42 21 38 39-8 46-34 17-36-29-29-52zm89 25c-4 2-1 8 3 8 8-2 4-17-3-8zm-71-50c-11 15 24 29 34 38 16 6-3-39 3-51-8-13-27 9-37 13zm-18 126c-4 1-1 8 3 8 5-1 1-9-3-8zm228-191c2-4-7-14-11-14 1 5 6 12 11 14zm-93 35c-25 65 34 7 45-16-9-1-14 10-23 11-3-9-20-1-22 5zm-18 42c-8-6-17-13-26-11-14-23-23-32-31-3-8 35 24 81 37 26 7 6 25-2 20-12zm72-84c-4-18-23 6-20-1 15-11 4-26-4-38-32 13-62 53-95 74-1 16 42 52 57 41 0-8 4-21-5-24 9-11 16-24 27-34 12-10 3 0-2 6 3 11 45-14 42-24zm-191 12c-3 7-5 23 5 14 16-17 38-31 49-52-17 1-46 20-54 38zm496 134c0 8 12 1 10-6-3-5-9 2-11 6zm-11 8c-16 5-25 27-4 27 7-7 21-23 4-27zm-34 70c2 11 30-18 32-27-13-2-22 20-32 27zm-419-57c6-4 15-7 16-14-4-2-25 11-16 14zm418-35c4-15-33-28-14-7-7 5 11 14 14 7zm-89-33c15 11 47 27 64 24 0-12-10-18-21-16 0-4 3-9 8-9 10-14-19-39-32-36-45-55-32-15-25 28 3 12 24 1 28 11-5 5-16-6-22-2zm-121 15c6-8 1-12-7-12 6 0 13 1 15-6 2-16 15-40-4-49-3-5-14-16-17-7-2 11 3 24-7 33-10 8 7-17 1-24 1-11-9-43-22-33-9 30-68 49-57 79 0 9 6 24 19 20-17 15 17 50 8 76-7 1 1-28-7-36-8-23-16-43-30-63-16 0-33 24-29 39 2 4 7 19 1 10-45-35-4 28 20 33 1 8-29-12-32-16-31-47-40 10-16 35-12-7-14-36-25-34-42 29 16 62 44 70 13 12 45 24 59 6 5-13 20-26 5-36 26 4 64-62 81-85zm-229 59c0-3-2-6-5-4-4 3 3 9 5 4zm473-63c-20-5-41-24-60-21-16 17 13 17 19 26 13 16 52 25 41-5zm25 49a9 9 0 00-5 8c3 14 20-11 5-8zm-73-79c8 11 34 19 47 16-6-16-32-23-47-16zm-120-104c17 9 61 29 83 42 22 12 39 7 58 23 15-8 10-40-11-36-9-14-28-22-43-21 0 6 2 9 0 16-6 16 10-23-39-22-12 0-66-20-48-2zm22-13c-8-6-25-13-35-12 7 8 24 17 35 12zm161 89c7-5-29-41-29-29-11 32 1 26 29 29zm-133-79c2-5-10-4-14-4-2 4 11 5 14 4zm138 206c-1-15-18 4-18 10 4 11 15-6 18-10zm-23-37c10 0 23-13 25-23-10-22-29 14-24 23zm-197-185c-1 4 15 12 11 4-3-3-8-6-11-4zm-14-467zm207 662c3-8-12-6-13 1-3 11 10 5 13-1zm36-54c7 0 3-11-3-10-6 2 0 8 3 10zm-225-146c-7-21-43-26-62-33 15 15 41 33 62 33zm-31-425a42 42 0 01-4 11 5 5 0 001-1l17-9a14 14 0 001-1 8 8 0 004-7l-2-11a2 2 0 00-2-1 2 2 0 00-1 1 20 20 0 00-3 3l-11 15zm87 552c0-6 5-23 2-36 1-16-110-61-99-41 22 40 61 69 100 89 9-1 3-11-3-12zm-201 221c8 3 2-20-5-12-4 4 1 10 5 12zm-16 1c27 12-28-40-42-37 0 14 31 25 42 37zm343-161c5-5-16-11-12-3 3 3 8 5 12 3zm-419 94c16 21 47 30 69 13-30-15-67-38-95-55-8 16 19 29 26 42zm-23-78c-5 0-12 7-7 12 4 0 12-9 7-12zm116 121c3-11 5-28-11-27-8 3-47 5-32 16 13 2 32 19 43 11zm307-206c-20-13-22 9 1 4 1-1 0-4-1-4zm-19-2c3-7-12-12-15-6 4 4 9 11 15 6zm-161 18c-8-34-13 2-12 16-9 21-74 80-64 94-110 81 127-3 76-110zm-251 102c3-3-1-9-5-9-6 1 0 14 5 9zm396-126c-6-6-22-18-33-14 6 7 25 23 33 14zm272 59l-107-18c-85 8 153 58 107 18zM546 229zM833 95l-11-2a51 51 0 015 3l5 3a2 2 0 001 0v-4zM109 657a7 7 0 00-3 1l3-1zm374-103a2 2 0 001 0 20 20 0 003-9l-4 5a5 5 0 00-1 3 2 2 0 001 1zm641-467zm29 426zm-26-432h1zM671 1248c-10 6-102 18-65 20 19-4 61 0 65-20zm-23 106c23 0 40-25 31-45-20 2-52 27-31 45zm-442 104c1 6 14 1 21 1 22-14-12-9-21-1zm-67-663l-3 1 3-1h1a2 2 0 00-1 0zm109 649c5 7 19 1 25-4 3-8-21 1-25 4zm195-648a12 12 0 00-5 2c-7 2-14 4-19 7l-4 1c-31 14-31 27-32 36a4 4 0 000 1 9 9 0 002 0l2-2 6-6 16-12 24-18 6-2v-1c0-2 2-2 3-4a3 3 0 001-2zm680-677a43 43 0 007 15l-6-13-1-2zm-47-3a7 7 0 002 3v1a7 7 0 00-2-4zM571 1367c-30 6-62 22-93 31 21 6 60 2 77-10 7 15 24-15 16-21zm661 72c7 2 13-7 7-12-5-3-11 9-6 12zm-14-1325l-2 4 2-4zM319 1462c-9 14-30 82 0 74 12-9 28-27 18-37 13 5 53-44 33-39 11-10 24-21 34-34 6-21-58 0-79 22l-5 9a12 12 0 00-1 5zm686 117c35 3 69 0 96-23 3-16-13-35-21-48-18-9-18 25-7 32-14-5-18-23-34-8 17-35-26 2-42-10-30 0-42 33-59 53 3 4 9 6 15 7a92 92 0 0116-1c13-1 27-3 36-2zm520-908a2 2 0 000 1zm-5 5a2 2 0 010 1zM714 1757c24-19 47-69 33-101-19 0-33 20-51 16-12-2 41-13 50-19 9-16-6-39-12-55-13 11-17 44-38 52 55-85-7-19-47-1-3 2-13 13-8 6 28-33 111-51 65-107-3-7-8-13-12-19 6-15-12-9-12 1-9 2-14-12-23-8-15 14-24 31-16 52-9-6-6-31-20-12-50 44 0 137 44 180l9 9c18 15 33 19 38 6zm245 5c10-23-23-49-35-69-11 4 6 28 9 38-21-21-15-74-44-82-6 22-5 45-17 65-19 24 24 35 37 51 21 19 34 44 58 55a47 47 0 0119 5l4 1c22 0-14-62-31-64zM405 273h-1zm261 1638c-7 1-10 22-1 18 1-5 5-15 1-18zm-99-513c-41 55 15 15 40-1 69-39-21-10-40 1zm904 57a3 3 0 00-6-2c-2 3 4 6 6 2zm-793-10c-3-13 13-43-1-49-16 8-37 22-38 41-8 0-12 8-10 15 11 32 8-32 16 31 15 1 32-22 33-38zm-9 30c-8 0-32 21-15 22 6-4 21-14 15-22zm-4 40c15 27 34-11 19-27-9-2-14 20-19 27zm769-86c0-4-1-6-5-5-9 1 1 9 5 4zm-187-80c8 8 29 13 40 13-8-9-28-15-40-13zm69 68c11 10 33 18 47 20-6-12-33-23-47-20zm-11 7c1 14 18 22 25 34-4 4 4 14 11 13 13 4 25 16 40 16 10 0 9-14-2-13h-15c60 0-42-52-59-50zm121-10a7 7 0 00-9 4c-1 8 15 1 9-4zm-800 14c-29 10-70 29-101 43 31 5 76-21 101-43zm11-136c-13-3-27 14-40 20 2 9 33-14 40-20zm-48 4c-2-7-21 2-27 6 2 7 23 0 27-6zm-77 81c5 4 17-3 23-6-3-5-19 2-23 6zm118-7c8-7 14-34 7-41-25 12-62 19-64 53 11 12 41-9 57-12zm-60-58c-2-8-22-1-25 6 3 6 19-4 25-6zm-15 93c-10 2-19 14-30 8 36-19-12-7-28-9-52-8-83 22-114 57-28 32-27 40-13 41a89 89 0 0114 0c11-1 24-3 37-3 35-8 60-35 92-51 16-7 46-24 43-43zm-8-3c2 2 8 0 10-3-1-3-10-1-10 3zm-177 100c-18 2-33 10-34 29 22 8 58-12 79-23-8-3-19-6-31-6a93 93 0 01-14 0zm170-171c15-2 34-3 45-12-11-4-24 8-36 4-7-3-19 3-9 8zm-46 32c26-31-51 12-56 25 14 5 39-20 56-24zm43-19c46-19-22-6-36 3 3 13 27 1 36-3zm59-522zm-382-69zm2 10a2 2 0 001 0 2 2 0 00-1-2l-1-1-17-11-20-10a23 23 0 00-5 0 7 7 0 00-5 3 16 16 0 00-4 7 4 4 0 000 3 10 10 0 003 2 68 68 0 0017 7l6 1a147 147 0 0026 1zm154 86a11 11 0 007-8l4-10v-7l-4 2-48 31v1a29 29 0 0018-1l23-8zm-113-85a15 15 0 003-1l1-1v-1a22 22 0 00-4-2c-9-2-24 2-19 6l10-1h9zm206-477l1-1-1 1zm72 310zm-242-31a8 8 0 000-1l11-2a23 23 0 0014-9l5-7a9 9 0 019-4 38 38 0 0112 3 2 2 0 010 2l-4 5a27 27 0 00-4 10 3 3 0 003 3 26 26 0 008 0 19 19 0 0011-7l6-7a1 1 0 010-1 33 33 0 017 7l1 2c1 4 2 5-3 7-9 6-13 14-14 25a26 26 0 001 5 3 3 0 004 2 38 38 0 0023-21l3-8a7 7 0 013-3h5l4-1 3 1 32 3 11 2 1 1a4 4 0 010 2 5 5 0 01-2 1 22 22 0 00-9 12 15 15 0 01-1 1 3 3 0 01-3 1l-8-5-2-1a3 3 0 00-4 1 33 33 0 00-2 10c0 7 3 12 8 16a17 17 0 0012 3 4 4 0 003-4v-4l-2-6c-1-4 0-6 4-6 8 0 14-3 20-8 4-3 6-5 9-5 19 10 35 22 45 33a129 129 0 019 17 33 33 0 012 5 7 7 0 010 3l-7 2-11-2a131 131 0 01-16-5 3 3 0 01-1-2l1-8c1-5 0-11-3-15l-2-1h-2c-5 4-8 9-7 16a18 18 0 011 3l-1 1-6-2a9 9 0 003 4 56 56 0 0011 7 57 57 0 008 4 2 2 0 010 2 39 39 0 00-6 10 2 2 0 010 1 14 14 0 00-5-1l-1-2-3-2c0 3 2 5 3 7a132 132 0 017 20 34 34 0 010 6l-1 1a8 8 0 01-2-1l-8-7a71 71 0 00-24-13 23 23 0 01-4-1 4 4 0 01-2-3v-9l-1-10a15 15 0 00-3-7c-1-1-2-4-5-3-2 0-3 2-4 4a41 41 0 00-2 5 14 14 0 002 13 39 39 0 012 4 43 43 0 01-5-1c-5-1-10 1-15 3a22 22 0 00-11 12l-3 8a3 3 0 01-4 1l-8-5a10 10 0 01-2-3h-1a6 6 0 010-4l3-5c4-10 2-20-4-29a3 3 0 00-4-1 57 57 0 00-10 16v10l-1 1a1 1 0 01-1 0 6 6 0 01-2-1c-15-13-25-31-38-46l-1-2a9 9 0 010-7l2-6a19 19 0 00-1-15 3 3 0 00-4-1 17 17 0 00-7 9l-1 5a3 3 0 01-3 2 8 8 0 01-1-1h-1a60 60 0 00-16-8c-10-4-1-13-1-20zm181 78c0 2 1 4 3 5a7 7 0 00-3-5zm-4-6c0 2 2 4 3 5a11 11 0 00-3-5zm-2-13l1 1a10 10 0 000-1h-1zm-2 10a11 11 0 002 0l-2-1v1zm-83 195a6 6 0 01-2 1v7a26 26 0 002-6v-2zM161 667zm598 974c6-1 1-10-3-10-3 3 0 10 3 10zm14-455c-30-20-68 32-81 60 29 6 57-42 81-60zm-43 637c-6 12 12 11 12 0-1-5-9-2-12 0zm-31 45c8-2 24-20 29-27 0-34-33 16-29 27zm19-372c-16-3-8 37 3 34 2-10 8-28-3-34zm6 33c2 6 1 27 10 23 12-17-6-74-10-23zm123 75c3-19-38-31-50-47-12-13-28-8-42 0l7-19c-1 17 30 6-9-18-14-12-12 28-6 34-24 15 3 41 11 58 19 46 59 6 89-8zM634 535l11-38 2-6a103 103 0 00-1-18 57 57 0 00-4-12h-4l-5 7a22 22 0 01-14 8l-4 1a7 7 0 00-6 6 28 28 0 003 13 3 3 0 001 2h2l4-8 1 1a21 21 0 01-1 2 29 29 0 000 17 90 90 0 0113 28 16 16 0 002-3zm-86 163h1-1zm36 40a2 2 0 001-1 2 2 0 00-1-2 9 9 0 00-1-1 14 14 0 00-7 0l3 4a8 8 0 002 1 6 6 0 003-1zm-80-41c-3 6 4 14 12 18a19 19 0 008 1h2a13 13 0 002-1 4 4 0 002-4 15 15 0 00-3-5 24 24 0 00-5-4l-8-5c-4-2-7-2-10 0zm97 24a3 3 0 002 0v-4a20 20 0 00-1-3l-10-27a89 89 0 00-21-19l-6-2a100 100 0 01-23-13l-2-1-22-8c-7 2-12 6-17 11h-1l-12 9c3 9 3 21 11 26a31 31 0 007 0 34 34 0 018 1c7 2 12 6 17 10l6 5a23 23 0 004 2c1 0 2 0 3-2l1-10a6 6 0 00-4-6l-8-3a23 23 0 01-12-15 3 3 0 013-4 35 35 0 0110 0 13 13 0 018 4l3 4a11 11 0 013 7l1 14 1-3c2 5-4 18 2 21a4 4 0 002 0l7-2a13 13 0 019 1l3 2 12 4 13 2a16 16 0 003 0zm-204 47l-16-5-10-2-4-1c-8 0-12 2-4 13a13 13 0 004 1l28-5a4 4 0 002-1zm96 27a72 72 0 006-4 2 2 0 000-2c-3-2-15 2-19 2a6 6 0 000 5c5 3 8 2 13-1zm-92-4a26 26 0 003 0l27-2a61 61 0 0017-3l38-14c3-4-6-5-20-4l-32 2c-24 2-49 6-61 9a18 18 0 007 8 47 47 0 0021 4zm325 1027c10 6 29-19 32-29 3-28-27 20-32 29zm403-1099a40 40 0 0123-5l-3-3v-2a97 97 0 0125-3h3l8 3a9 9 0 000-2 4 4 0 010-1h2c26-10 57-16 86-13 17-3 20-28 41-27a2 2 0 010 1 8 8 0 010 2 26 26 0 00-2 12v5a6 6 0 01-4 6l-8 4-36 18a331 331 0 01-59 13h-5l-18 1-49-1a49 49 0 01-10 0 26 26 0 016-8zm63-6a30 30 0 0011 7 14 14 0 0017-5 20 20 0 003-8 3 3 0 00-2-3c-6 0-13 1-17 6-3 3-6 5-11 3a4 4 0 00-1 0zm-6-4l3 1a5 5 0 00-3-1zM587 373a12 12 0 005-7l-1-1a6 6 0 00-6 6 3 3 0 000 1 2 2 0 002 1zm40 350a6 6 0 00-1-1 109 109 0 00-11-21 66 66 0 00-6-9l-4-3c-1 9 4 32 16 37a19 19 0 004 1c1 0 2-1 2-4zm-52-307a418 418 0 010-6 23 23 0 000-3c1-6 4-10 7-15a14 14 0 017-5l9-3 6-2a25 25 0 0013-10l4-6a3 3 0 013-1l2 1 3 4 15 16a16 16 0 011 2 2 2 0 01-1 3l-6 2c-5 2-7 6-7 12a41 41 0 000 5l3 2h2a19 19 0 0010-7l4-5h2a16 16 0 012 3 79 79 0 018 31c0 3-2 5-1 8a51 51 0 010 7c1 9-2 18-5 26-3-1-7-7-11-17l-3-8a13 13 0 00-2-2v-1 1a5 5 0 00-2-2l1 8a3 3 0 01-3 3l-7-1a65 65 0 00-7 0c-5 0-9 3-12 7h-3l-1-3-2-4a21 21 0 00-14-10 30 30 0 00-14 0 16 16 0 00-4 2 3 3 0 00-1 3 14 14 0 002 2c7 9 15 15 26 15l4 1a4 4 0 014 3 45 45 0 010 14 10 10 0 010 2 3 3 0 01-3 1 19 19 0 01-3-1l-11-8-30-24c-2-16 6-28 15-40zm49 27a22 22 0 005-7 1 1 0 000-1 1 1 0 00-2 0l-4 8zm-11-65a6 6 0 01-4 2c0 2 5-2 4-2zm-41 265c0 2 1 6 3 8a2 2 0 000-1h1a17 17 0 00-3-8 2 2 0 00-1 1zm3-136a45 45 0 00-6-6 26 26 0 00-7-3c8 16 18 37 30 49a2 2 0 000-1 68 68 0 00-17-40zm86-28l2 1a42 42 0 005-2c4-1 9-1 13 1a37 37 0 019 6 9 9 0 013 5 68 68 0 0115 1 4 4 0 003-1 8 8 0 00-2-6l-17-9a80 80 0 01-11-6c-4-2-8-5-10-8l-1-2c-4 3-6 9-8 15l-1 4a1 1 0 000 1zm-108-38c-3 0-5 7-3 9h1a13 13 0 002-9zm690 1010c-17 2-6 36 4 26-1-7 5-25-4-26zm16 46c2 8 20 30 27 17 0-8-20-28-27-17zm-43-17c-6 10 10 13 12 21 3 12 12 1 16-5 5-15-19-38-28-16zm109-13c-5-19-24-41-40-53-9-2-43-22-36-3 5 29 23 43 46 50l7 2a230 230 0 0023 4zm-23-4l-7-2-7-2c-18 0 17 18 11 28-8-13-18-26-33-30-20 12 104 120 106 79-10-34-36-63-70-73zm-198 115c-26 29-23 50 14 22 3-6-5-35-14-22zm57 4c-14 5-25 16-30 24 6 9 7 26 18 30 15-12 15-20 4-27a28 28 0 01-10-6 92 92 0 0110 6c31 9 61-54 77-77-2-11-57 43-69 50zm47-93c-23 21-64 37-70 74 0 3-5 14-5 6 1-6 11-21 2-22-18 9-24 35-2 44 36-17 67-47 96-76 5-8-13-28-21-26zm-52 149c-8 2-4 19 3 13 2-4 4-15-3-13zm283-206c3 2 13 7 13 0-3-12-25-11-13 0zm-8 9c2 4 30 15 24 4-6-3-19-9-24-4zM1800 0v2100H0V0h957l4 1c1 0 0 2-2 3a33 33 0 00-9 7c-7 7-9 16-7 26a3 3 0 004 2 79 79 0 008-5c9-7 15-15 18-26a53 53 0 011-5 3 3 0 013-2l11-1h812zm-271 329a17 17 0 00-15 5 4 4 0 000 5 31 31 0 002 3c7 7 16 10 28 10a41 41 0 005-1l1-2a3 3 0 000-2c-3-10-11-16-21-18zm-32 142a3 3 0 000 1c2 2 4 2 7 2 8 0 14-3 18-10a3 3 0 00-1-3 21 21 0 00-24 9 1 1 0 000 1zm5-39a2 2 0 00-1-4 11 11 0 00-2-1 29 29 0 00-31 13 9 9 0 00-1 1 3 3 0 001 3c3 2 6 2 9 2h5a14 14 0 004-1 36 36 0 0016-13zm-18 207a60 60 0 00-10 9c-3 4-3 6 2 8a26 26 0 0010 2 16 16 0 0010-3c6-4 9-10 10-16a4 4 0 00-3-4 24 24 0 00-6-1 27 27 0 00-13 5zm37-35l13-2a9 9 0 002-1 2 2 0 001-3 52 52 0 00-9-12 21 21 0 00-7-5 19 19 0 00-23 7 3 3 0 000 4l7 6c4 4 9 6 16 6zm19-201l-1-3a14 14 0 00-9-8l-8-2-5 1a30 30 0 00-4 1c-2 1-3 4-2 6l7 7a23 23 0 0015 6c9 1 10-2 7-8zm-42-152c7 4 15 6 23 7 7 0 11-1 16-4 6-3 5-5 1-9l-6-6a18 18 0 00-14-5 28 28 0 00-6 1 31 31 0 00-16 12 3 3 0 002 4zm-71-34a2 2 0 002 2l14-1a23 23 0 009-3 33 33 0 0012-12 6 6 0 000-2l-1-1c-6-3-12-5-19-4a12 12 0 00-4 1c-8 5-12 11-13 20zm-38 23l4-4c6-6 7-13 5-20a3 3 0 00-3-2 17 17 0 00-3 2c-6 5-8 10-10 17-1 6 1 8 7 7zm-84-153a26 26 0 004 12 59 59 0 0013 14 1 1 0 001 1 7 7 0 003-1 8 8 0 001-2c2-4 3-9 3-14a18 18 0 00-6-12 26 26 0 00-14-7 4 4 0 00-3 2 14 14 0 00-2 7zm-29 63c0 8 1 15 6 20l13 13c1 1 3 1 4-1a32 32 0 004-22 16 16 0 00-6-9 30 30 0 00-18-7 3 3 0 00-3 2v4zm-17 12a88 88 0 00-6 7c-5 7-5 15-3 22a4 4 0 005 3c8-2 13-8 12-17a36 36 0 00-4-14 3 3 0 00-4-1zm-53-50a18 18 0 015 9 27 27 0 012-2l3-1a8 8 0 003 1 93 93 0 0114 1 20 20 0 007 1 34 34 0 0019-10 6 6 0 001-1 2 2 0 00-1-2 53 53 0 00-12-8 17 17 0 00-14 0 35 35 0 00-5 3 44 44 0 00-3 3c-1 1-2 2-3 1l-1-2a39 39 0 000-6c-1-4-2-9-6-12a52 52 0 00-12-8l-2 1-2 10c-1 8 1 16 7 22zm28 22l-6-1a66 66 0 00-7 0c-6 2-9 7-8 13a4 4 0 004 3c6 0 11-2 15-7a21 21 0 003-4 3 3 0 00-1-4zm-32-6a10 10 0 004-2l-4 2zm-51-66c2 7 6 12 13 14a50 50 0 0111 6 1 1 0 001 0l1-1a33 33 0 00-2-15 15 15 0 00-9-8 22 22 0 00-10-2l-2 1c-3 0-4 2-3 5zm-18 4v-4c0 2-2 3 0 4zm-44-33a27 27 0 000 6 3 3 0 003 2c7-1 12-3 17-7a37 37 0 009-12c0-1 0-2-2-3l-7-1h-4c-8 0-16 7-16 15zm-186-3c4 13 13 23 26 28l5 1a7 7 0 014 2c1 3 4 4 7 3l9-3c9-3 14-9 17-17a4 4 0 00-2-4l-10-1a19 19 0 00-14 6l-4 3a2 2 0 01-2 0l-3-8a23 23 0 00-14-14 37 37 0 00-13-2l-2 1c-3 0-5 2-4 5zm-13 27a25 25 0 002 5 11 11 0 009 8h6a4 4 0 002-5 35 35 0 00-4-12 25 25 0 00-12-10 2 2 0 00-3 2 42 42 0 000 12zm-96-4l-1 10c1-2 3-14 1-10zm-95 80l1 4a6 6 0 00-1-4zm-47-34l2 3a25 25 0 004-2l8-5c11-7 15-18 16-30l-3-2a71 71 0 00-17 5 16 16 0 00-8 7c-4 7-6 15-2 24zm4 10c2-1 1-3 0-5l-2-2-9-2a24 24 0 00-15 2c-9 4-15 11-17 20a7 7 0 000 1 4 4 0 002 3 11 11 0 001 1c17 1 30-5 40-18zm-18 70a3 3 0 00-3 4 12 12 0 000 2c3 8 8 12 16 15a3 3 0 003-2l1-3-1-6a10 10 0 00-3-6 15 15 0 00-13-4zm-35-97l11 9c6 4 13 5 20 5l12-2 2-3a11 11 0 000-2 21 21 0 00-10-13 30 30 0 00-18-4 36 36 0 00-17 6c-1 1-2 3 0 4zm-4 164a15 15 0 007 12 3 3 0 004-2l1-7a33 33 0 00-6-19 2 2 0 00-4 0l-2 9a24 24 0 000 7zm-1 59a2 2 0 002 0 14 14 0 00-1-1l-1 1zm-69-102a31 31 0 003 6 3 3 0 004 1 47 47 0 0012-13 21 21 0 002-12v-4a3 3 0 00-4-1 34 34 0 00-10 6c-7 4-8 10-7 17zm12 24a2 2 0 001 2 2 2 0 00-1-2zm-2-2a3 3 0 001 2zm-2-2a3 3 0 001 2zm-29-13a10 10 0 005 5 23 23 0 007 2 27 27 0 0114 5 8 8 0 003 1c-3-7-7-12-12-17a5 5 0 00-2-1 18 18 0 00-4-2 13 13 0 00-11 4 3 3 0 000 3zm-36 46l3 7a21 21 0 00-3-7zm-60-24a16 16 0 001 3 31 31 0 0014 16c3 2 5 3 8 3a3 3 0 003-2v-2c0-13-10-22-24-21a3 3 0 00-2 3zm-6 31a38 38 0 00-10-14 8 8 0 00-5-3l5 6c5 6 8 13 8 21l-5-4a15 15 0 00-11-4 25 25 0 00-11 3 4 4 0 00-2 1 3 3 0 000 2 7 7 0 001 3c3 6 8 9 15 10l9 2a20 20 0 0114 8l3 5 13 15a27 27 0 0015 9l28 7a20 20 0 008 0c-3-2-7-2-10-3l-30-8-1-2 6-6a17 17 0 005-10 63 63 0 000-9c0-1-1-2-3-2a47 47 0 00-6 3c-5 3-8 7-8 13l-1 2c-2 1-3 0-3-1l-9-9a33 33 0 01-10-16l-1-7-4-12zm11 71a40 40 0 00-6-11 18 18 0 00-7-7 14 14 0 00-3-1 4 4 0 00-4 3 20 20 0 001 12 13 13 0 009 8 38 38 0 005 1l2-1c2 0 3-2 3-4zm-65-78l11 1a22 22 0 0015-6l5-4a6 6 0 014-2l4 1a2 2 0 000-1c-1-2-1-4 1-5l2-3c7-6 7-15 6-23a3 3 0 00-3-2 37 37 0 00-6 4l-6 5a4 4 0 01-2 0c0 1 0 0 0 0a17 17 0 01-1-3 40 40 0 00-6-18 3 3 0 00-4-1 34 34 0 00-7 12 23 23 0 00-1 9 14 14 0 007 12c3 2 6 2 8 0h2l2 3a12 12 0 010 2 2 2 0 01-1 2l-5-1c-10-3-18 1-24 8a14 14 0 00-3 7c0 2 1 3 2 3zm-76 57a3 3 0 001 1 9 9 0 002 1l7-1c10-1 17-7 23-14a3 3 0 00-1-3c-5-4-12-5-18-3-7 3-12 9-14 17a3 3 0 000 2zm60 59a3 3 0 002-2 12 12 0 001-2 48 48 0 00-3-13 21 21 0 00-7-11l-6-2c-2 1-2 3-2 5v12c1 8 7 13 15 13zm-3 3c-10-1-19 3-24 12-2 4-3 8-3 14l1 6c1 2 3 3 4 2a106 106 0 0010-6 29 29 0 0011-17l2-9a2 2 0 00-1-2zm-13-9c-4-6-10-8-17-7a16 16 0 00-9 5c-2 2-5 4-5 7 2 4 6 4 9 5a16 16 0 003 1h5a24 24 0 0013-6 4 4 0 001-5zm-22 147a14 14 0 00-6-7 17 17 0 00-3-1 8 8 0 00-2 2c-2 2-2 4-3 7-1 8 3 14 11 17a30 30 0 005 2 3 3 0 003-3 50 50 0 00-5-17zm-62 27a14 14 0 0013 11 4 4 0 004-3l1-6c0-7-1-12-5-16a75 75 0 00-5-6 3 3 0 00-4 1 39 39 0 00-4 12 24 24 0 000 7zm-36 19a22 22 0 009 9 40 40 0 0016 6c2 0 4-2 3-5a19 19 0 00-13-14 60 60 0 00-8-1l-6 1a3 3 0 00-1 4zm-74 90v0zm1324 752c101-4 253-9 344-49a923 923 0 01-419 31c-36-8-74-16-102-39 11 0 25-3 39-5l14-1c12 0 23 2 30 10 2-3 7-13 2-14a291 291 0 01-32 4l-14 1c-27 2-52 1-67-1-16-1-19-31-36-38-40-28 82 8 94 7 18 3 57-5 59 16 4-15 42-5 35 5-6 0-1 3 2 1 7-1 11 0 11 9 11-13 28 14 17-7 7-8 38 9 53 11 13 3 30 17 31 19a3 3 0 010 1v-1c1-20-51-24-67-39-5-2 3-6 2-7-2-1-2-2-1-4h1a6 6 0 00-1 0c-17 14-38 0-56-5-37-15-99-3-122-36 10 27-50-3-62-5 3-8 88-1 38-7-9 4-14-6-23-6-8 10-19 1-27 6-37 1-75-24-111-34-48-34-104-68-142-114-21-35-25-78-32-118a172 172 0 00-6-19c-9-22-18-44-9-68 28-35 75-58 113-83a16 16 0 014-4 6 6 0 017 2l5 7a21 21 0 006 6 39 39 0 0016 4l2-2a46 46 0 00-5-15 15 15 0 00-8-7l-4-1a2 2 0 01-1-1c15-5 29-10 24-20a14 14 0 000-2 4 4 0 00-4-2 20 20 0 00-5 0 56 56 0 00-7 2l-26 12a40 40 0 01-5 1 2 2 0 01-2 0 2 2 0 010-2l2-6a15 15 0 00-1-12 25 25 0 00-4-6 7 7 0 01-2-5 2 2 0 00-3-2l-7 4 3-5c12-12 28-21 46-25l19-2h8a5 5 0 013 4 31 31 0 010 5v8a29 29 0 003 16 85 85 0 0012 17 3 3 0 004-1c7-11 9-23 4-35l-2-6 15 11a20 20 0 006 4l-1-2-1-2c-18-16 27-6 22-11h1a1 1 0 000-1 16 16 0 00-4-1h-13c-39-5-12-13 29 0l4 16a26 26 0 0012 17l14 10a11 11 0 003 1 2 2 0 002-2 34 34 0 001-4v-16a20 20 0 011-3l1-1 9 5 19 17a96 96 0 0116 19 601 601 0 0119 32c3 5 3 6-2 11l-5 5a22 22 0 00-6 14c-1 7 0 10 4 9a29 29 0 005-2l3-1a13 13 0 007-8 36 36 0 001-6l1-6a2 2 0 010-1l1 2a9 9 0 015 1l1 1 13 11a9 9 0 004 3l-2-3-8-9-8-12a26 26 0 014 2 18 18 0 0018-1 131 131 0 0018-13c2-1 1-3 0-4a104 104 0 00-18-7 28 28 0 00-17 2l-5 2-6 2-5 1-12-19a154 154 0 00-28-35 196 196 0 00-21-21c16 5 29 1 41-5a79 79 0 0024-14c11-6 22-10 35-7h3a7 7 0 015 6v5c0 7 3 13 7 18a3 3 0 005 0 19 19 0 003-9v-7a18 18 0 011 10c2-3-2-12 4-11l16 11c3 2 3 5 3 8l-3 10c-3 9-2 17 2 24l9 17a3 3 0 004 1 58 58 0 0012-19 33 33 0 001-3 26 26 0 00-3-20 41 41 0 00-7-9l-5-5a3 3 0 010-4 33 33 0 014-2l9-3 1-1c-1-2-2-3 0-5a29 29 0 006-11 6 6 0 011-3 34 34 0 006-1 209 209 0 0025-2 6 6 0 011 1 2 2 0 010 2 34 34 0 00-5 12l-3 6-1 4 1 11c0 8 3 14 9 20a3 3 0 003 0 7 7 0 001-1c5-8 5-18-2-25l-3-3a2 2 0 010-2 2 2 0 012 0 35 35 0 014 4l6 6a21 21 0 0019 5 3 3 0 002-2c-1-7-5-13-11-16l-4-2a2 2 0 01-1-3 37 37 0 003-13 30 30 0 010-4 4 4 0 013-3h1a126 126 0 0127-1h1a4 4 0 012 4 23 23 0 010 5l-2 15a22 22 0 002 13 120 120 0 005 11 25 25 0 006 7 3 3 0 005 0 64 64 0 008-15c4-9 3-17-3-25l-3-3a9 9 0 01-1-2v-1l2-1 5 1c7 4 14 6 22 3h-2a3 3 0 011 0l-1-1a23 23 0 00-4-1l-4-1-13-4-5-2-13-5c-6-4-2-9 20-14 2 0 6-1 3-3-8-7 23-10 31-13l1-1h1a4 4 0 013 2l2 4 5 10a32 32 0 009 11 87 87 0 0019 11 7 7 0 001 0 2 2 0 003-1 21 21 0 001-5 40 40 0 00-4-21 33 33 0 00-7-9 23 23 0 00-14-7h-7a2 2 0 01-2-1 2 2 0 011-2l6-5a2 2 0 000-2 13 13 0 00-1-2l6-2 12 8c4 3 8 4 12 4l16-2c1 0 2-2 1-3a43 43 0 00-8-9c-5-5-11-7-18-6h-6a2 2 0 01-1-1 15 15 0 010-3 25 25 0 000-13 48 48 0 00-7-15c-1-2-3-2-4-1l-9 12a28 28 0 00-5 13 79 79 0 001 19c0 2 2 4 4 4l-13 8-11 3a7 7 0 01-6-2l-5-6c-4-4-9-6-15-4a38 38 0 00-6 3c-2 1-2 3 0 5l8 6a3 3 0 010 4l-10 6a130 130 0 01-31 11l-9 2a12 12 0 01-2 0c-2-4 23-23 31-28 1 0 6-1 4-3h-1v-1a33 33 0 00-17 7l-7 6-11 8a40 40 0 010-4c1-9-3-16-9-21a2 2 0 00-3 0 27 27 0 00-4 9 23 23 0 002 17l2 4a1 1 0 010 1h-1a28 28 0 01-4 0h-1a69 69 0 00-7-2 32 32 0 00-19 2l-9 5c-3 1-5 1-7-1h-4a21 21 0 00-3 1 12 12 0 01-2 2 85 85 0 01-16-2 102 102 0 00-25-7l-2-1c19-6 35-20 52-31h1a5 5 0 013 2l4 8a23 23 0 0012 11l12 4a2 2 0 003-3l-1-8c-1-7-4-13-9-16a4 4 0 01-2-2 3 3 0 010-1 1 1 0 011-1l16-1h14c18 0 35-1 46-10h2a4 4 0 002-1 2 2 0 000-2l1-1h-1v-1l3-4a17 17 0 004-9c1-6 1-12-1-19a3 3 0 00-4-1c-9 4-16 9-19 19l-4 16a6 6 0 01-5 4l-6 1a167 167 0 01-34 3h-12a84 84 0 00-34 6l-3 1c-6 1-9-1-1-11 4-1 16-6 23-11a5 5 0 015 1l5 5a10 10 0 009 2 3 3 0 002-2c0-5-3-9-8-10a14 14 0 00-4 0c-2 1-2-1-3-2-2-1-4 1-6 1a3 3 0 01-3-1l-5-11c28 4 69 13 92-11 8-14 26-17 37-23l-1-1a2 2 0 00-2-1l-5 1h-3v-2c3-4 7-8 8-12 2-6 3-12-1-17l-12-18a10 10 0 00-1-2 2 2 0 00-4 1l-8 21a26 26 0 000 14l3 8 3 7a4 4 0 01-1 6l-14 10h-4c1-3 3-7 3-11a17 17 0 00-3-10 28 28 0 00-17-10 3 3 0 00-3 2 35 35 0 000 17 23 23 0 008 12l5 4a3 3 0 011 3 49 49 0 01-10 6 161 161 0 01-22 5c-13 1-26 1-39-4l-4-1a54 54 0 00-19-1 60 60 0 00-18 4 68 68 0 00-24 7c17-14 38-31 41-55a10 10 0 01-2 3l1-3h-2l-4 4c-8-1-15-14-3-17s24-22 22-31a1 1 0 00-1-1 1 1 0 00-1 0l-4 7a16 16 0 01-8 7l-2-13c1 2 2 4 1 5 3 2 0-7-1-9a2 2 0 00-1 1c-1-5-5-9-10-11l-6-1a4 4 0 01-2-1 2 2 0 010-1l5-8c-1-2-2-2-1-4l4-6c3-8 2-15-4-21a65 65 0 00-7-6 3 3 0 00-4 1c-5 7-6 16-3 24l5 15a3 3 0 01-1 3 19 19 0 01-14 5h-1a3 3 0 01-3-2l1-5 1-8a15 15 0 00-3-10c-4-6-10-8-17-9a3 3 0 00-2 2 24 24 0 004 20 74 74 0 005 6 38 38 0 018 11 52 52 0 003 6 44 44 0 013 4 7 7 0 01-1 7 22 22 0 01-4 4l-13 9c-6 4-7 2-7-4 0-7-4-11-9-15a51 51 0 00-13-5 3 3 0 00-4 2c0 11 3 20 12 26a47 47 0 016 6 3 3 0 011 3l-7 18a8 8 0 010 1 3 3 0 01-3 2l-4-1c-1-1-2 1-2 2a19 19 0 002 3 57 57 0 01-2 13l-2 4a26 26 0 01-1 2l-20 26a56 56 0 01-13 13l-2 2a68 68 0 01-12 6c-9 3-17 8-25 12a146 146 0 00-25 14l-3 1-4 2a45 45 0 01-9 3 284 284 0 01-36 4c-13-3-3-15 22-24h1a29 29 0 009-3l5-1v-3l1-1a6 6 0 016 0l3 1c7 3 14 2 21-1a2 2 0 001-3c-4-6-9-9-15-9l-6 1a2 2 0 01-2-1c8-7 18-12 25-18v-1a12 12 0 0110 1 53 53 0 008 3 22 22 0 0011 1 63 63 0 0016-5 3 3 0 001-4 18 18 0 00-2-2 31 31 0 00-13-9c-9-3-18-2-25 5l-6 6-3-1 2-3a19 19 0 000-17 34 34 0 00-7-11 3 3 0 00-4 0 69 69 0 00-5 7c-3 6-4 12-3 19l1 3c3 13 2 12-8 19l-1 1c-2 1-4 0-4-1l-2-9a12 12 0 00-3-7 23 23 0 00-15-6 3 3 0 00-2 1 9 9 0 00-1 4 24 24 0 004 16l8 9 4 6a4 4 0 010 3 49 49 0 01-14 7h-6a23 23 0 00-16 8l-5 7-5 7a14 14 0 01-3 3c-2 4-5 5-9 5h-2a42 42 0 00-24 4 64 64 0 01-12 4l-18 5c-10-1-14-9-2-30 16-19 35-31 50-45l7-6a36 36 0 009-13 80 80 0 0011-26 84 84 0 0028-6 68 68 0 008-2c4-2 9-1 12 1 4 3 8 4 12 4h8l3-1c1-2 0-3-1-5a62 62 0 00-4-5c-3-3-6-5-10-5a5 5 0 01-2 0 3 3 0 01-1-1l6-5c15-10 34-12 47-22a7 7 0 018 2l7 5a30 30 0 0021 7 3 3 0 003-2l-1 3a3 3 0 002-4h-1a3 3 0 000-1 23 23 0 00-23-18c-5 0-7-1-6-4 5-11 6-14 4-13v-4l-4 5a22 22 0 01-2 3h-1a8 8 0 01-2-3l-2-11a2 2 0 00-3-1 58 58 0 00-5 7 20 20 0 00-2 16l2 5c1 3 0 6-3 7a41 41 0 01-5 2l-11 4a100 100 0 00-28 13l-5 4-3-1a47 47 0 00-4-11 3 3 0 011-3l8-5c8-2 14-6 14-16l-4-9a7 7 0 010-3 50 50 0 018-13 4 4 0 013-1l8 3a15 15 0 0010 1 44 44 0 0014-5 3 3 0 001-4 32 32 0 00-9-8c-8-5-17-3-23 4l-4 5-12 13v-8a77 77 0 000-8 15 15 0 00-7-11 32 32 0 00-12-5 4 4 0 00-4 4 22 22 0 004 16 68 68 0 007 9l9 9 2 5 2 6a7 7 0 01-4 8 23 23 0 01-4 2 100 100 0 00-24 10 52 52 0 01-5 2c-4-5-1-26-5-24l-6-8a39 39 0 01-4-4 2 2 0 010-2 34 34 0 014-3 27 27 0 009-11 37 37 0 002-6 10 10 0 00-1-3c0-1-1-3-2-2l-7 2a10 10 0 01-4 1c-2 0-2-2-3-3h-1a1 1 0 00-1 0l-1 5-2 19a4 4 0 01-4 4c-7 0-13 2-19 5a2 2 0 00-1 4 22 22 0 0014 6 30 30 0 0011-1l7-2a4 4 0 015 3c1 6 0 12-1 18-1 7-5 13-12 17a14 14 0 00-3 1l-11 10a33 33 0 00-12 24v5c0 9-5 15-11 21a12 12 0 01-4 1 6 6 0 01-3 0c-4-3-5-14-7-19 0-15 29-20 29-35a23 23 0 01-4 5 16 16 0 003-5l-2-3 1-6a10 10 0 00-1-6 24 24 0 00-9-10 3 3 0 00-3 1 13 13 0 00-3 6 25 25 0 001 14l5 11a4 4 0 01-1 3 21 21 0 01-2 2l-13 9-6 5a8 8 0 00-3 9l2 5 2 7a2 2 0 01-2 3c-1 0-3-2-4 0l4 4a9 9 0 012 2 10 10 0 011 1c0 2 0 4-2 7a26 26 0 01-4 5l-7 5-25 18a19 19 0 00-7 10l-8 26a24 24 0 01-9 12l-16 11a13 13 0 01-1 1 3 3 0 01-4-1c-3-4-3-6 0-10l3-3a26 26 0 004-10 2 2 0 00-2-2 11 11 0 00-10 6l-2 6a2 2 0 01-2 1 12 12 0 01-3-2c-2-2-5-3-6-6 1-3 4-3 7-4l4-2 9-4a15 15 0 006-7 3 3 0 00-1-4 22 22 0 00-11-2h-5l-1-1 1-6a6 6 0 01-1-4 48 48 0 00-1-13 2 2 0 012-3 46 46 0 016 1 61 61 0 0115 8l6 3-4-4-5-4a2 2 0 011-3l9-3a5 5 0 014 0l3 3c6 4 12 5 18 3a3 3 0 002-3c-2-6-6-10-12-11l-5-1a3 3 0 01-2-2 45 45 0 010-7 12 12 0 00-3-8l-3-5a4 4 0 01-1-2 3 3 0 010-1 7 7 0 013-2 14 14 0 0112-1c2 1 5 3 8 3h19l1-2a1 1 0 000-1l-10-10a21 21 0 00-3-3 16 16 0 00-17-1 34 34 0 00-4 2l-4 3a10 10 0 01-2 2 2 2 0 01-2-1 2 2 0 01-1-1l1-2c7-9 13-19 18-28 29-22 56-46 76-77 6-16 16-26 28-33a262 262 0 0141-9h4c19 0 40 3 60 5h2a127 127 0 0029 3c11 0 20 0 29-2 13-4-1-19-4-26-1-9 0-17 2-24l4-11a30 30 0 0111-9 6 6 0 011 1l9 7a22 22 0 009 5 36 36 0 0016 1 2 2 0 002-3 27 27 0 00-6-10l-4-3c-1 0-2-1-1-2a2 2 0 011 0h4a116 116 0 0132 14c3 2 4 4 3 7l-1 7a21 21 0 002 11 40 40 0 006 11 2 2 0 004-1c4-5 6-11 5-18 2 6 2 11 1 0a2 2 0 012-3 4 4 0 011 0l6 7a18 18 0 0011 7l6 1 4 1 15 4v5l-1 3a37 37 0 005 23 64 64 0 008 12c3 3 5 3 7-1a27 27 0 002-3 38 38 0 000-25 21 21 0 00-3-6l-4-4a2 2 0 010-2 272 272 0 0029 4l6 1a7 7 0 011 1c2 1 3 3 2 4l-3 7a27 27 0 00-2 14 57 57 0 004 17h3a54 54 0 005-4 25 25 0 008-17v-9a8 8 0 00-1-4c-3-6-8-10-15-11l-13-2-33-7-14-3a6 6 0 01-3-1 2 2 0 010-2l7-4a13 13 0 006-10 3 3 0 00-4-3c-8 1-16 4-20 12l-2 3a58 58 0 01-11-6l-7-7-3-4c6-4 13-5 21-6l16 1c9 1 18 2 26 1l2 1a10 10 0 017 5l2 5a25 25 0 0014 14c7 3 8 2 8-5v-1c0-7-2-12-7-15a24 24 0 01-2-2 2 2 0 010-3 30 30 0 019-2l8-1 13-2 9 1c3 0 6-4 9-5a1 1 0 001 0l-1-1a14 14 0 00-1-1 8 8 0 01-6-4l-5-11c-1-2 0-3 2-4l-5-4c-10-3-19-3-29-2l-13 3a26 26 0 01-9 1c-2-4 9-5 12-7l27-11 4-2 11-4c5-2 10-2 14 3l2 1c5 6 12 7 20 6a3 3 0 002-4 21 21 0 00-12-12c-3-1-6 0-8-3h-6a2 2 0 01-2-2v-3c2-8 0-15-5-21a2 2 0 00-3-1c-7 7-10 15-10 25v7a5 5 0 01-3 5l-9 3-26 8c14-13 21-31 28-49l1-5a14 14 0 017-3l8-1c9-2 15-6 19-14a3 3 0 00-1-4 28 28 0 00-19-4l-5 2a2 2 0 01-1-1 2 2 0 01-1-2l5-9 8-11a46 46 0 006-20c1-8-1-15-8-20a85 85 0 00-9-6 3 3 0 00-4 1c-5 10-6 19-2 30l5 8c3 7 3 13-1 20-8 13-13 27-18 40l-9 23-2 5c-7 7-15 12-24 15h-23a194 194 0 00-26 4l-21 3c-15 0-30 0-43 2a151 151 0 00-19 3 66 66 0 00-11 3 44 44 0 00-27 25v2a71 71 0 00-6 12l-1 1a89 89 0 01-2-13l2-21c12-33 66-29 89-63a36 36 0 017-11 4 4 0 012 1 16 16 0 011 2l4 7a27 27 0 0010 10 68 68 0 0017 7 3 3 0 003-3v-1a35 35 0 00-3-13c-4-10-11-16-22-17a23 23 0 01-4 0l-1-1c12-10 28-18 37-31l-1 1a14 14 0 012-2 14 14 0 000-1l-5 2-8 5a2 2 0 01-4-2v-7c0-4 0-6 2-7 20-4 40-10 50-25 3-1 4 0 10 5a33 33 0 0010 6c4 2 9 3 14 1a3 3 0 001-3 21 21 0 00-6-10 15 15 0 00-10-4h-8a24 24 0 01-4 1 8 8 0 01-4-2h1-1a6 6 0 01-1-1c-1-1 0-3 1-4a30 30 0 002-4 15 15 0 000-12 29 29 0 00-12-13 2 2 0 00-2 1c-4 8-6 17-2 26l3 7c2 3 1 5-1 6-6 6-14 11-22 12a58 58 0 01-17 5l-19 3-18 2c-10 2-21 6-30 11a19 19 0 01-3 2c-5-2 11-18 9-24-3-18 15-29 20-43l-2 2a7 7 0 001-2v-1h-2l-11 11-6 6c-15 8-1-17 9-40l5-6c7-7 6-7 16-6a23 23 0 0015-4l9-8v-1a3 3 0 00-1-2 26 26 0 00-20-3 17 17 0 00-9 4l-2 2-1 2-3 1-1-1v-4a16 16 0 00-1-3 214 214 0 00-1-13 4 4 0 013-5l7-1a29 29 0 009-5c4-3 8-6 10-11a3 3 0 00-2-4 17 17 0 00-3-1 22 22 0 00-17 4l-6 4-1 7a13 13 0 01-1 2l-2 1-4-5a18 18 0 00-14-8 52 52 0 00-7 0c-3 0-5 2-4 6a21 21 0 008 12 77 77 0 009 5l8 4a5 5 0 012 5l1 12a104 104 0 01-4 13l-1 1-12 14a27 27 0 00-9 19l-1 14v2a143 143 0 01-6 21 30 30 0 01-3 4l-12 13-10 9a20 20 0 01-4 2l-8-11-1-2c-4-11-6-24-11-33 0-3 1-5 4-4l8 1h13a66 66 0 0017-7c2-1 2-3 0-5a35 35 0 00-14-7 19 19 0 00-11 0l-4 1a7 7 0 01-4 0c-3-1-5 0-7 2l-6 7v-9a17 17 0 00-2-10l-3-4 7 1a14 14 0 002 1 2 2 0 002-2l-2-8c-2-4-6-5-10-4a3 3 0 00-2 3l2 7-9-3a7 7 0 00-2 0 4 4 0 00-3 1 8 8 0 00-1 5 21 21 0 004 13 64 64 0 006 7l6 7a7 7 0 011 2c-2 5-1 10 1 15l5 15 2 5-1 1h-1a28 28 0 01-3-2c-5-3-9-3-14-1a50 50 0 00-6 3c-2 1-2 3-1 5a24 24 0 0018 9l9 1a4 4 0 014 4v17l-10 5h-3a66 66 0 00-15 4c-8 2-14 8-18 16a56 56 0 01-3 5 7 7 0 01-4 0l-14-9-10-10a3 3 0 013-4h6a30 30 0 0010-2 16 16 0 006-4c2-2 1-5-1-6a21 21 0 00-11-3h-6l1-7-7-5a7 7 0 01-3-6v-7c-1-8-5-14-12-18a3 3 0 00-3 1 36 36 0 00-2 3c-2 7-3 13 1 20l-1 1-2-1-3-4a1 1 0 00-1 1v4c0 2 0 3-2 4l-3 1a13 13 0 00-6 5 58 58 0 00-6 14 3 3 0 003 3 43 43 0 0012-3 19 19 0 008-6 61 61 0 015-5 13 13 0 013-3c5-2 9-1 13 2a3 3 0 011 3l-3 7-4 7c-2 5-1 9 2 12a20 20 0 003 4l13 9 5 3c5 6 7 11 9 16a34 34 0 01-1 10 10 10 0 01-5 7 231 231 0 01-23 12l-13 4a236 236 0 00-25 6c-13 3-25 8-36 17 6-16 8-29 7-40a50 50 0 00-4-29l-1-2c-3-15-5-30 5-48 20-27 55-38 70-69a57 57 0 0010-14 2 2 0 011 0 18 18 0 013 2c4 5 10 7 17 7a7 7 0 003-1 2 2 0 001-2 7 7 0 00-1-2 17 17 0 00-11-11v-2-1c2-2 5-2 8-3l6-3-1-4-5 2c-3 0-6 2-8 4l-8 5a2 2 0 01-1 0 106 106 0 005-20 41 41 0 0110-10h-4c-2 0-2-2-2-4l2-4c1-2 3-5 3-8l-3 2c-2 2-3 1-4-1v-6l-1-7c-1-14-4-23-5-17a68 68 0 00-5-11 18 18 0 001 7l3 10a67 67 0 013 17 20 20 0 010 4l-1 1h-2a21 21 0 01-2-3 19 19 0 00-12-6 42 42 0 00-17 0c-2 0-3 2-2 3l7 13a24 24 0 0016 10l6 1c4 1 5 4 4 8a25 25 0 01-1 3l-9 17h-1a6 6 0 01-2 1v-1c1-4-1-8-4-11l-5-2-2 5a31 31 0 000 6 17 17 0 001 3l2 4a9 9 0 01-1 8 116 116 0 01-15 21 2 2 0 01-1 0l-1 1-1-2v-7a15 15 0 00-4-10 45 45 0 00-11-8l-3 1-1 2a2 2 0 01-1 0l-1-8c8-11 14-17 16-22l1-1c6-11-3-12-16-35l-1-2a34 34 0 01-1-6 5 5 0 014-5l10-2a35 35 0 0010-5c-2 5 6-2 7-4-3-2-3 5-7 4l1-1a53 53 0 0014-18 2 2 0 00-1-2l-7-1c-8-1-15-1-23 2a8 8 0 01-2 0l3-10c1-5 1-10-1-15a3 3 0 00-4-2 26 26 0 00-6 6c-8 8-10 17-5 28 2 2 3 3 6 1l3-2-3 12a2 2 0 01-2 0l-3-4c-6-7-14-10-23-7l-9 3a33 33 0 01-4 1 2 2 0 01-1 0c-1-12 0-25 10-43l-3 2 2-3a1 1 0 00-1-1 1 1 0 00-1 0 105 105 0 00-13 25l-1 2c-3 11-2 21 1 32l3 10v-1 1c-3-2-5-1-6 1a33 33 0 00-3 5 14 14 0 00-1 11 4 4 0 005 2c4-1 7-4 7-9v-7 1a17 17 0 012 2l4 13a34 34 0 01-1 4 3 3 0 01-2 2 4 4 0 00-4 4l-1 6a31 31 0 01-8 14 11 11 0 01-1 1c-7 2-11-16-32-27a50 50 0 00-4-3 46 46 0 01-4-2l-3-11c-2-10-7-19-15-25a31 31 0 00-5-4l-4 2-1 8c0 7 1 14 6 19a7 7 0 012 4h-2l-13-4-7-2-19-5a104 104 0 01-21-10 2 2 0 010-1l6-4a20 20 0 0010-12 3 3 0 00-3-4c-4-1-9 0-13 3l-3 2a2 2 0 01-2-1 16 16 0 01-1-2h-1v7a2 2 0 01-1 2 2 2 0 01-2 0 47 47 0 01-4-6 4 4 0 01-1-4l7-12-3-9a4 4 0 00-4-2 16 16 0 00-7 8c-2 4-3 4-7 3a32 32 0 00-5-2 12 12 0 00-5 0c-5 1-10 4-14 8l1 4 8 3a18 18 0 0013 0 47 47 0 014-2 5 5 0 016 2 19 19 0 013 3l1 2 10 17a2 2 0 010 1l-1 2a15 15 0 01-4-1 29 29 0 00-13-1 25 25 0 00-15 8 3 3 0 001 4l12 6a24 24 0 0014 2l8-1a10 10 0 0110 4l2 4c12 18 19 38 20 59a91 91 0 010 10 65 65 0 01-4 15 10 10 0 01-1 1l-4 4a34 34 0 00-12 18l-2 8-1 5-1 1-2-1a25 25 0 01-1-4c-3-7-9-11-16-13l-7-2a9 9 0 01-6-4c-3-15-8-29-17-35l-1-1a3 3 0 012-2 20 20 0 014-1l6-1a27 27 0 0014-6 56 56 0 0013-15 6 6 0 001-1 2 2 0 00-1-2 51 51 0 00-18-4c-11-1-19 5-22 15l-2 6a2 2 0 01-2 1 2 2 0 01-1-2 17 17 0 010-5l3-10a29 29 0 001-13 14 14 0 002 4 30 30 0 00-5-15 50 50 0 012 5 30 30 0 00-13-15 8 8 0 00-3-1 2 2 0 00-1 1 3 3 0 00-1 1c-2 10 0 19 7 25l6 5c1 2 3 4 2 6a65 65 0 00-4 15 2 2 0 01-2 1l-10-7a66 66 0 01-6-6c-12-16-10-30-11-42v-1a6 6 0 000-6 31 31 0 00-3-4 22 22 0 00-7-8l-3-3a18 18 0 01-2-4 3 3 0 010-2 31 31 0 013-6l6-6a24 24 0 007-13 47 47 0 000-16 3 3 0 00-3-2l-13 5a18 18 0 00-8 10l-2 4h-2l-3-6a17 17 0 00-16-9 60 60 0 00-9 2 3 3 0 00-1 3 7 7 0 000 1 25 25 0 0012 15l8 4c-6-1-11 2-15 5a3 3 0 000 5 20 20 0 0014 5l10-1a10 10 0 018 4 135 135 0 0114 17 19 19 0 011 6l-3 9c-1 2-3 3-5 1l-3-3c-8-7-18-9-28-5l-6 2a9 9 0 01-9-2 35 35 0 01-3-2c-9-16-23-31-31-37v-1a3 3 0 010-3 42 42 0 015-4l7-4a26 26 0 0011-15l4-17a3 3 0 00-2-3 66 66 0 00-20 5c-8 3-12 10-13 18l1 7c0 2 1 3-1 5-2-1-2-3-2-5a26 26 0 00-8-10c-6-5-12-7-20-5a98 98 0 00-19 9c-2 1-2 3 0 4l11 8c7 5 16 8 25 6a35 35 0 017-1 10 10 0 018 4c11 14 23 26 32 41a44 44 0 005 6 54 54 0 014 11l-1 2v5l-2 1v-1l-2-6c-4-9-10-13-19-13a51 51 0 00-18 4c-1 0-2 2-1 3l11 13c4 4 10 6 15 6h8a5 5 0 014 3 39 39 0 012 5c2 6 7 10 13 13h2c12 7 30 7 45 10l5 2a34 34 0 0116 9 15 15 0 011 2v1l-1 1-7-2c-10-3-23 2-28 9a3 3 0 001 4l12 5a28 28 0 0013 2l9-2 7-1a3 3 0 013 2 36 36 0 012 5l3 19a90 90 0 010 23l-2 30a329 329 0 01-8 50 19 19 0 01-2 6 4 4 0 01-3 1c-9-1-11-20-18-25-14-25-35-45-53-67a29 29 0 003-4 8 8 0 012 2l5 6a21 21 0 0011 8l14 3a3 3 0 003-3 43 43 0 00-5-16 15 15 0 00-12-8l-6-1h-5l-3-7a42 42 0 00-2-7 4 4 0 011-1l8-6c11-7 15-17 16-29 1-1-1-3-2-2l-15 3c-6 2-11 5-13 11-1 2-1 3-3 3a91 91 0 01-6-15 3 3 0 00-1 0 22 22 0 01-1-14 12 12 0 000-4c0-5-3-9-7-11a25 25 0 00-11-3 3 3 0 00-3 4 34 34 0 003 11 14 14 0 006 6l5 3a10 10 0 014 4l-1 3a3 3 0 01-2 0l-5-4c-12-5-23-4-33 4-5 5-5 7 1 9l8 4a34 34 0 0025 1l6-2a5 5 0 015 1 269 269 0 003 12 49 49 0 006 16 40 40 0 011 8l-6 5a8 8 0 01-5 1 169 169 0 01-42-27l-12-12c-10-14-13-32-16-51l-3-3a27 27 0 00-9-12c-7-8-7-7-5-30v-3c1-1 0-1-1-1a1 1 0 000 1l-4 7-5 5v6a2 2 0 01-2 2l-4-2h-1v1l4 5a1 1 0 010 1l-1 1a132 132 0 01-19-3 6 6 0 01-2-1c3-8 7-16 8-25 0-2 4-1 5 0a6 6 0 004 3 4 4 0 00-3-3 10 10 0 00-2-3c-8-4-7-15-12-20v-1l-2-1-1 1a32 32 0 001 4l1 7c0 2-2 3-1 5l2 4a19 19 0 011 6 19 19 0 01-3 10 50 50 0 01-3 5l-5 5c-3 4-2 7 2 8h1v1h2l3 1 18 4a45 45 0 0115 11 35 35 0 012 11c-3 0-9-3-19-12l-2-1a59 59 0 00-5-4 4 4 0 00-3 0l-16 2a29 29 0 00-11 5 3 3 0 000 4 17 17 0 0010 5 32 32 0 0017-1l7-3a4 4 0 014 1l4 3c6 9 16 20 27 32l23 28a149 149 0 0010 11c4 4 3 5 0 9a19 19 0 01-3 3 2 2 0 01-2 0 7 7 0 01-2-2l-4-6c-4-9-7-16-9-14l-2-4a29 29 0 00-2-5 14 14 0 00-9-6l-7-1a20 20 0 00-15 2l-12 7a2 2 0 000 4l13 8a26 26 0 0021 1l6-2a6 6 0 017 3l3 4a132 132 0 007 20v1c0 8 3 14 9 19a38 38 0 005 3 19 19 0 015 5l14 13 5 4a17 17 0 014 9v1a187 187 0 01-11 25 80 80 0 00-3-13c-1-6-4-10-8-14l-2-2a351 351 0 00-23-10l-1-1a233 233 0 00-28-10 3 3 0 01-1-2l3-8c3-10 3-19-2-28a21 21 0 00-2-3 2 2 0 00-3-1c-5 4-10 9-12 16a19 19 0 003 17l4 6a10 10 0 01-5-1l-29-9a17 17 0 01-2-1 2 2 0 010-4l6-5a23 23 0 007-8 43 43 0 003-12 3 3 0 00-3-3c-7 1-14 2-20 8a2 2 0 01-1 0l1-10a137 137 0 002-19l2-9a5 5 0 00-2 1v-7c-1-3 0-5 3-7l8-7a15 15 0 005-7 7 7 0 000-5c-1-2-3-2-6-1h-3c-4 2-7 4-8 8l-2 5c-1 2-4 3-6 2-6-3-12-3-18-1a3 3 0 00-2 3 22 22 0 0015 14l6 1a6 6 0 014 6 40 40 0 010 6l-4 20a93 93 0 00-1 18 27 27 0 002 10c-1 3-2 3-4 2l-6-3a168 168 0 00-19-13h-1c-1-1-3-3-5-3a3 3 0 00-2-3 1 1 0 00-1 2 3 3 0 003 1c1 3 3 4 5 5l5 4 5 4 7 5 10 8a13 13 0 012 2 1 1 0 010 1 494 494 0 00-13-3c-4-2-9-4-14-4a10 10 0 00-2 0v1l4 2a1 1 0 010 1v1c-7 2-11 6-15 12a3 3 0 01-3 1l-7-2a8 8 0 002 2 37 37 0 004 3l2 2a6 6 0 011 2 3 3 0 004 3 33 33 0 0111 1l5 1 7 2 20 6a2 2 0 010 2l-3 3a27 27 0 00-5 11 3 3 0 003 3 11 11 0 002 1c7 0 13-2 19-7l4-4c3-3 6-4 10-3a23 23 0 008 1l4 1a332 332 0 0112-1 2 2 0 012 2l-3 4a17 17 0 00-2 10 45 45 0 003 13 3 3 0 001 1 2 2 0 002 1l8-8c5-4 7-10 8-16v-7a4 4 0 012-2c9 0 16 2 20 5a15 15 0 013 8 86 86 0 010 12l-1 1a1 1 0 01-1 0l-2-4a11 11 0 00-7-4 27 27 0 00-4-1c-3 0-5 0-7 2-1 2 1 4 2 6a20 20 0 0010 9l4 2a2 2 0 010 1l-2 4-14 12a4 4 0 01-4 0l-3-1c-10-2-17 1-25 6a2 2 0 001 4c7 4 14 5 22 2l4-3a16 16 0 018-2l-1 1a213 213 0 0022 4c9 3 18 4 27 3l10 1-3 4a19 19 0 00-4 9 3 3 0 002 3 20 20 0 005 0 23 23 0 0012-8l4-5a139 139 0 0115 3l24 12 5 3a13 13 0 011 1 29 29 0 014 8v1l-2 13-5 29c-2 10-2 20-1 30a37 37 0 011 4 42 42 0 01-11 32 806 806 0 01-33 34 30 30 0 01-13 3 138 138 0 01-10-10l-6-8c-9-13-11-27 5-41 11-28-34-41-2-54l10-2a5 5 0 016 4l1 4c2 7 6 11 13 13a3 3 0 003-1 36 36 0 001-5c0-7-2-13-9-15v-3-1l1-1-2-1-32 6a11 11 0 00-8 6l-1 2-2 2a6 6 0 01-1-1 42 42 0 01-5-7 123 123 0 01-3-9c-1-3 1-5 5-6l4-1a17 17 0 006-2 32 32 0 008-9 2 2 0 00-1-4c-7-1-13-2-19 2a9 9 0 01-2 1 6 6 0 01-3-4l-1-8v-1a2 2 0 00-1-1c-1 0-2 0-2 2l-2 18a77 77 0 001 16v6c0 1-1 2-2 1a32 32 0 01-3-2c-4-3-9-4-14-3a52 52 0 00-14 6 3 3 0 000 4v1a23 23 0 0013 6 38 38 0 0010 1l11-1a9 9 0 017 3l18 19v1a33 33 0 012 5 10 10 0 010 8h-1c-3 2-9 1-16-1l-15-7-20-11-5-4a5 5 0 010-2c0-2-1-4-3-5l-6-3c-8-12 4-16 6-42l-1-2a26 26 0 012-5 65 65 0 013-7c3-6 3-11 2-17-1-1-2-2-3-1-7 2-11 6-12 13l-1 2a2 2 0 01-3 2l-1-1-16-18a13 13 0 01-1-2 3 3 0 011-3l7-4c5-3 8-8 9-13l1-13c0-3-2-4-4-3a91 91 0 00-11 5 16 16 0 00-8 13l-1 8a13 13 0 001 7 69 69 0 009 15l4 4 2 3a2 2 0 01-2 3l-7 2-9 2c-1 0-2 2-1 3a8 8 0 001 1c5 7 11 10 20 10h2v-1h6a19 19 0 014 0 3 3 0 012 2 17 17 0 01-1 4l-8 22a6 6 0 01-1 1 9 9 0 01-7 2l-6-3a66 66 0 01-7-4l-5-5c-5-8-7-17-9-27a35 35 0 00-1-6l-1-2c-3-17-6-34-21-46a119 119 0 01-22-23 7 7 0 010-2c4 0 7 2 10 3a3 3 0 012 3 9 9 0 003 5l8 8a24 24 0 005 4 21 21 0 008 3l-3-1 14 2a4 4 0 004-4c0-6-2-11-6-14a28 28 0 00-10-4l-9-3c-2-4-5-8-9-11s-8-4-12-2l-8 4a3 3 0 01-3-1l-4-8h-1c2 7 3 14 8 19a9 9 0 011 2 2 2 0 01-2 3h-14l-2-4-11 4c-6 3-9 7-9 14v6a9 9 0 01-2 6 4 4 0 01-2 1l-3-1a4 4 0 01-1-1l-2-8a253 253 0 0113-95c4-7 1-16-5-24a35 35 0 00-5-7 99 99 0 00-16-15 10 10 0 010-5l1-9c1-6-1-11-5-15a3 3 0 00-4 0c-4 5-7 10-4 17a23 23 0 010 4h-3a711 711 0 0018 18 74 74 0 018 9 44 44 0 015 17 104 104 0 01-4 23l-1 1a1 1 0 01-1-1l-3-5a21 21 0 00-10-10 44 44 0 00-14-3c-1-1-3 1-3 2l3 10a28 28 0 0014 19h2c5 3 7 7 6 12a172 172 0 00-3 39v25a5 5 0 01-1 4c-1 0-2 0-3-2a62 62 0 00-5-5 25 25 0 00-19-6 3 3 0 00-3 4 72 72 0 006 15 21 21 0 008 9l7 3a9 9 0 013 3 4 4 0 010 2 5 5 0 01-1 3l-14 10c-4-1-8-7-10-15l-3-9a236 236 0 01-5-40c2-16-1-31-7-43a30 30 0 00-22-22 67 67 0 00-20-7h-1a3 3 0 01-1-2l1-4 3-10c2-6 1-13-3-19-1-1-3-2-4-1a58 58 0 00-6 5c-3 4-5 8-4 13a20 20 0 003 8l4 7a29 29 0 01-6-4c-4-7-7-15-11-17a25 25 0 00-2-2 1 1 0 00-1-1 1 1 0 000 2l2 4a34 34 0 007 14l2 4a18 18 0 007 7 59 59 0 008 4l12 4c9 5 17 10 22 17a29 29 0 013 11c0 5-2 6-7 5l-7-2-11-2-4 5a16 16 0 00-9 6 27 27 0 00-4 11 4 4 0 003 4 18 18 0 003 1 20 20 0 0013-4l8-6 7-6a4 4 0 014 1 7 7 0 013 7 79 79 0 00-1 14v8a33 33 0 01-1 4c-2 3-6 3-11 2l-4-2-26-15-25-14h-2a42 42 0 00-15-5 71 71 0 00-14-1h-4c-15-3-29-6-42-12l-8-4c-6-4-7-5-4-11a29 29 0 00-4-27 3 3 0 00-4-1 30 30 0 00-7 11v11a2 2 0 010 2 2 2 0 01-2 0l-6-4-1-1a16 16 0 00-4-2l-2-1h-1v2a24 24 0 002 3l2 2 4 5-1 1a8 8 0 01-3 0c-7 0-13 2-18 7l-3 2c-3 3-3 5 1 7a61 61 0 009 2c8 2 16 1 24-2l3-2a12 12 0 015-1 86 86 0 0027 13l5 3a55 55 0 0024 5h9c12 2 23 5 34 11l1 1a2 2 0 010 1 9 9 0 01-1 2l-16 2c-9 1-18 4-25 11a9 9 0 00-3 4h2l-1 1c14-8 29-16 45-13 1 1 0 2-1 3a24 24 0 00-3 15c0 2 2 3 4 2a24 24 0 0012-11l1-4a4 4 0 016-2 34 34 0 014 2l15 10 5 3c6 7 11 16 16 25l1 3 6 25a105 105 0 007 18 49 49 0 0017 20l4 2a27 27 0 012 2l2 2a31 31 0 016 7l3 4 22 40a18 18 0 011 3 7 7 0 01-1 3 7 7 0 01-1 0l-19-7-13-5c-4-2-5-5-5-9l1-3c0-11-5-18-12-25a3 3 0 00-3 1 8 8 0 00-1 0c-5 7-5 15-1 22a40 40 0 003 5 18 18 0 012 2 2 2 0 010 2 2 2 0 01-1 0 32 32 0 01-10-8c-1-11-8-33-13-44a92 92 0 00-8-16c-3-5-3-6 2-10a42 42 0 004-5 53 53 0 004-7 15 15 0 001-11 3 3 0 00-3-2l-8 3a12 12 0 00-7 10 8 8 0 000 2c1 4-2 8-2 12l-2 1a41 41 0 01-5-1c-6-1-11 0-15 3a42 42 0 00-11 9 2 2 0 001 4l9 3c8 2 16 2 23-3a28 28 0 014-2 5 5 0 015 1 14 14 0 012 4 209 209 0 017 18c0 12 2 20 5 28l1 1v6a11 11 0 007 8l5 3 14 5 33 13c11 4 21 11 29 22a26 26 0 011 3 9 9 0 01-1 7l-2 3c-8 12-19 20-30 27a6 6 0 01-3 1 6 6 0 01-1 0 29 29 0 01-5-3 7 7 0 01-3-4v-8c0-9-4-16-10-21a3 3 0 00-4 1 31 31 0 00-2 15l1 6-3-1a13 13 0 00-2 0h-1l1 2 20 13 3 2a50 50 0 0110 11 17 17 0 011 5v14a17 17 0 01-1 3 3 3 0 01-3 1c-13-7-22-18-31-30l-4-8a56 56 0 00-16-17 66 66 0 00-19-13 18 18 0 00-1-1 25 25 0 01-3-8 3 3 0 011-4l7-4 14-8c4-3 7-7 8-11a20 20 0 000-4l-2-3h-11a16 16 0 00-11 4l-5 5 1-6c1-9-1-17-7-25a4 4 0 00-2-1l-6-1-15-1h-1a3 3 0 00-2 4 20 20 0 000 3 27 27 0 0013 15l10 4a13 13 0 013 3 2 2 0 010 1 15 15 0 01-6 8 2 2 0 01-1 0l-5-4c-5-4-11-4-18-1a3 3 0 00-1 3 22 22 0 0013 11l5 2a22 22 0 015 2 9 9 0 014 9 4 4 0 01-2 3l-7-1-24-7h-1c-4-3-6-7-6-13 2-5-5-13-8-15h-1a3 3 0 01-1-4l3-6c3-8 2-16-1-25a2 2 0 00-4-1 66 66 0 00-6 7c-4 5-5 11-2 17a40 40 0 012 5 2 2 0 01-1 2 8 8 0 01-3 1l-2-2c2-3 2-4 0-6a64 64 0 00-5-5c-8-6-16-7-25-3a41 41 0 00-6 5 3 3 0 00-1 4 27 27 0 003 2 35 35 0 0014 5h6a1 1 0 011 2 2 2 0 01-1 1l-3 3-5 6a2 2 0 000 2 12 12 0 003 2c7 2 14 1 21-4l7-6a3 3 0 013 0c3 4 6 8 5 13a16 16 0 002 10v2a2 2 0 01-2 3l-7-1h-1l-26-3-12-2a24 24 0 01-8-5 16 16 0 00-4-5 11 11 0 00-6-5h-1a43 43 0 00-14-4h-3a7 7 0 01-6-5l-3-10v-4c-3-12-10-20-20-25-2-1-4-1-5 1-2 6-4 12-3 19a21 21 0 005 12l3 4a2 2 0 01-1 3l-9 2c-6 2-10 5-12 11l-4 14-2-1c-5-1-8-4-9-9l-2-4c-1-6-5-10-11-12-1-1-3 0-3 2v7l-1 6a3 3 0 01-2 2 27 27 0 00-4-1 14 14 0 00-5 1 17 17 0 00-10 12 3 3 0 002 3 19 19 0 0012-3l4-4a6 6 0 013-1v1l11 2 5 1a11 11 0 014 3 3 3 0 010 2 74 74 0 00-2 7 7 7 0 003 7 38 38 0 006 4l3 2 22 14a115 115 0 0113 19 147 147 0 0016 24l8 10 7 8c4 7 5 10 2 11l-12-3-18-7a11 11 0 01-5-9v-11a23 23 0 00-2-8 36 36 0 00-10-14 3 3 0 00-3 0 37 37 0 00-7 14 19 19 0 002 13 35 35 0 012 5l-1 1a7 7 0 01-2 0l-1-1a232 232 0 01-21-10c-5-4-9-9-10-15a36 36 0 016-1l7-1c9-1 15-5 20-13a3 3 0 00-1-3 44 44 0 00-5-3c-7-2-13-2-19 1a27 27 0 01-3 2l-2-2v-1h-1c-4-3-5-4-12-6l-8-6a5 5 0 010-3l2-7a13 13 0 00-2-10c-1-1-3-2-4-1a10 10 0 00-2 2 47 47 0 00-4 5 26 26 0 00-1 2 2 2 0 01-2 1h-1l-8-9a7 7 0 00-5-2l-6-1a18 18 0 00-10 1 3 3 0 00-1 5 13 13 0 0010 4 48 48 0 006-1 10 10 0 019 3 40 40 0 013 4l2 4c-1 2-3 2-4 2h-4a19 19 0 00-14 9 20 20 0 00-1 4 3 3 0 002 4l5 1a22 22 0 0016-5l4-3a8 8 0 017-2l3 1c9 4 14 3 15 9a5 5 0 01-1 1l-3 8a3 3 0 01-4 1l-7-3-2 1v3l-6 1a17 17 0 00-10 5 3 3 0 000 3c5 4 10 6 16 5l5-2a9 9 0 016 1h-1a81 81 0 009 7 32 32 0 006 6l10 6 11 7a82 82 0 018 7h-1a105 105 0 00-23-4h-3c-13-3-26-3-38 3a55 55 0 01-6 2l-20 4a5 5 0 01-4-4v-7a23 23 0 00-6-14 52 52 0 00-14-10 3 3 0 00-3 2h-1a81 81 0 00-1 20 11 11 0 003 6l4 5a2 2 0 010 2 2 2 0 01-2 0 40 40 0 01-9 0 73 73 0 01-17-7v-4a34 34 0 004-13 23 23 0 00-5-16 15 15 0 00-1-1h-3l-3 4c-3 7-5 14-2 21a2 2 0 011 1 37 37 0 01-4-1 24 24 0 00-8-4 73 73 0 00-17-4 11 11 0 01-3-3 13 13 0 01-1 2l-1-1-1-14a22 22 0 00-3-9 41 41 0 00-11-13 2 2 0 00-3 1l-4 13a15 15 0 003 12 31 31 0 011 3v1h-1l-9-2a23 23 0 00-17 2 38 38 0 00-12 10 3 3 0 001 4c9 3 18 5 26 2l8-2a29 29 0 00-7 16 20 20 0 002 11c0 1 2 2 4 1 8-4 14-11 16-21l1-6a5 5 0 014-4h1c-3 3-5 2 5 1a55 55 0 0122 7l4 2a6 6 0 011 2 1 1 0 010 1l-1 1-5 1c-10 1-16 7-18 17a80 80 0 000 11c-1 3 1 5 5 3a94 94 0 009-3 25 25 0 0010-9l4-7 3-4a3 3 0 013-2h1c19 9 36 9 51 6a102 102 0 0027-7c7-2 13-3 16 1-1 4 0 8 1 12a1 1 0 010 1v1a8 8 0 01-3 0l-15-5-1 1a1 1 0 001 1 24 24 0 004 3c5 4 16 5 24 7l6 3a8 8 0 011 0 21 21 0 012 4 8 8 0 010 4 1 1 0 010 1l-6 1-3-1a74 74 0 00-34-3 23 23 0 00-6 1l-4 1a13 13 0 01-12-6l-3-5a23 23 0 00-11-9 53 53 0 00-17-4 2 2 0 00-2 2v1c2 7 4 13 9 18a20 20 0 011 2 1 1 0 011 1l-2 1-22-1h-8a1 1 0 00-1 0 1 1 0 001 1 31 31 0 008 2l7 2c34 9 71-9 103 7l1 1c4 4 10 7 17 9a131 131 0 0021 8 17 17 0 015 4 2 2 0 010 1c-9 2-16 6-24 10a40 40 0 01-5 2c-9 1-19 0-28-1l-5-1c-8-3-16-4-24-1a12 12 0 01-4 1 2 2 0 01-2-1 28 28 0 01-1-5c-1-7-6-13-12-16a3 3 0 00-4 1c-1 4-2 9-1 13a34 34 0 010 5l-12-6a60 60 0 00-8-5v-1h-1a26 26 0 00-15-4 40 40 0 01-12-1 32 32 0 00-6-1 11 11 0 00-9 5 59 59 0 00-4 6c-1 2-3 3-5 3l-3-1h-4l-30-10-4-2a9 9 0 01-5-8l-1-8c-1-8-5-13-11-16a3 3 0 00-3 0 24 24 0 00-5 14 14 14 0 004 10 29 29 0 006 5 69 69 0 008 4l3 1 17 8 6 2a69 69 0 0012 4l16 3c1 2 7 0 12 1l1 1v3c-1 2-1 2 1 2l1 1c3 3 16 2 20 5 4 1 5 2 5 3a2 2 0 010 1l-15 9a64 64 0 01-9 5c-7 3-14 5-21 5a12 12 0 01-9-4l-4-5a26 26 0 00-13-6c-7-2-15-2-23 0l-1 3 7 13a24 24 0 006 5 21 21 0 0020 4l7-2-3 6a21 21 0 00-2 11 49 49 0 004 16 3 3 0 005 2 33 33 0 0011-10 27 27 0 007-18v-5a10 10 0 014-8 27 27 0 015-3l13-7a277 277 0 0190-9h2a6 6 0 014 2 29 29 0 013 4 28 28 0 009 9v1l-2 1-12-1h-8c-1 2-1 4-3 5a9 9 0 00-3 3 15 15 0 00-2 4 16 16 0 000 12 3 3 0 003 1 18 18 0 0012-10l3-7a5 5 0 013-3 47 47 0 0020 0 29 29 0 0015-6l1-1 4-1a2 2 0 011 1l-2 8a26 26 0 000 3 2 2 0 002 1c6-1 11-4 14-9 2-5 6-7 10-8a2 2 0 001 0 1 1 0 000-1l2 1-1-1a1 1 0 00-1-1 11 11 0 00-9-3l-8 1c-6 0-12 2-17 6l-5 1a5 5 0 01-2-1l-8-10c-1-2 0-4 2-5l4-2a162 162 0 0035-10 18 18 0 0119 3 83 83 0 014 9c1 4 0 7-3 9l-1 2a9 9 0 002 0v1c3-1 10 0 15 2a39 39 0 018 6 2 2 0 011 1 2 2 0 01-2 2 258 258 0 01-15 3l-23 5a194 194 0 00-43 15l-19 10a6 6 0 00-3 3c3 0 6-2 8-3a12 12 0 003 0c23-11 52-20 76-26h3l34-4c5 0 7 2 6 5l-4 3a237 237 0 01-23 16l-34 20-5 3a9 9 0 01-11 0l-4-4-5-3a26 26 0 00-20-4 4 4 0 00-3 5 41 41 0 006 11 12 12 0 0010 5h12v1a46 46 0 01-4 4 603 603 0 00-53 49 13 13 0 00-1 3l5-4a11 11 0 00-1 2l4-3a2 2 0 011 2l-1 8a14 14 0 003 9 27 27 0 0010 8 6 6 0 001 1 3 3 0 002-2 10 10 0 001-1c0-9-1-16-7-23l-4-4a4 4 0 01-1-4 404 404 0 0140-34 5 5 0 012 1 8 8 0 012 2l4 5a16 16 0 0015 6 64 64 0 008-1 37 37 0 004-2h4v3l-1 5a21 21 0 001 13 19 19 0 0012 11 3 3 0 004-2v-16a25 25 0 00-4-12l-7-11-9-3a9 9 0 01-3-1 3 3 0 01-1-2l1-1 3-1c8-1 13-2 17-4v5a6 6 0 003-3l1-3c5-2 7-5 8-9l3-2 2-2a19 19 0 004-1l6-3a1 1 0 011 0v1l-1 6c-2 9 1 15 8 21 2 1 5 1 7-2a20 20 0 003-13l-2-11-2-9a6 6 0 012-5l4-4 18-14 4-4a1 1 0 010-1 6 6 0 002 0l-1 1c5 0 7-4 11-6 3-6 8-5 13-3l3 4 2 4a3 3 0 01-1 1 8 8 0 01-2-1 13 13 0 00-2 0l-4-1c2 3 5 4 8 5a13 13 0 007 1h1a2 2 0 011 2l-6 10a9 9 0 014 6c1 4 4 7 8 9a33 33 0 003 2c3 1 5 0 6-2l5-13c5-3 7-7 6-12l-1-4-6-2a3 3 0 01-1-2c24-10 55-29 69-32a5 5 0 011 1l1 2 5-5a31 31 0 013-2 82 82 0 0163 1 102 102 0 0115 9 66 66 0 0114 15l6 10 4 4a54 54 0 0010 13 127 127 0 0024 20l3 2a51 51 0 0110 9 27 27 0 014 8l-1 1-3 1-6-1-5-1-43-9-18-5-39-13a6 6 0 01-2-6l2-8a14 14 0 000-11l-5-10a3 3 0 00-4-1 36 36 0 00-8 10 15 15 0 00-1 12c1 2 3 4 2 7l-9-4c-3-2-7-2-10-3a3 3 0 00-4 1 22 22 0 00-2 4 6 6 0 001 7 46 46 0 005 3 65 65 0 0012 8l2 1a1 1 0 010 1 1 1 0 01-1 0l-10 4a16 16 0 00-8 10 20 20 0 000 8 4 4 0 004 3 23 23 0 0016-10l3-5a28 28 0 012-3 6 6 0 016-3l8 2c37 14 42 14 27 17l-9 1a159 159 0 00-26 6 71 71 0 00-7 2 2 2 0 00-1 2 2 2 0 001 2 9 9 0 003 1 72 72 0 0011 0l10-2c26 0 55-1 82 4a199 199 0 0141 16 95 95 0 019 5 90 90 0 0110 11 38 38 0 013 3l11 21a172 172 0 0110 26 217 217 0 015 51l-1 5c-6 32-14 64-25 95a94 94 0 01-5 10v1a85 85 0 01-39 33c-59 21-108 68-172 73l-34 5c16 3 44-4 64-8 36-9-3 15-17 18 27 5 55-10 76-26 25-3 112-39 51 9-6 2-13 4-4 6-3 7-14 10-22 12-18 5-32-11-48-2-12 9 20 0 26 8-3 8-19 5-26 8-55 7-119 8-173-18-9-4 0 3 3 6 17 13 10 11-6 10 20 5 44 1 63 5 4 2-1 5-3 4 2 2 2 5 0 6-43 17 29-3 47-4 13-1 1 7 0 12 20-17 37-6 58-11 68-4-72 39-89 37 12 5 28-6 38-2-14 13-41 6-60 11h31c35 4-21 36-51 29-2-3-6-6-13-9 3 5 8 7 13 9 12 12-16 22-30 35-21 9-48-5-69-9 12 17 39 4 54 19 2 12-17-1-22 0-9 7 31 4 9 13-46 2-96 27-143 15-13-3 5 4 10 6-3 11-27 10-38 9-19-3-92-5-46 0 67 3 33 4-3 24a110 110 0 01-41 11c-12 6-45-17-34-1-26 19 15-3 29 5-3 14-22 22-30 34 20-14 40-27 60-35l48-11c13 1 1 11-5 14 0 3 13 5 14 3-5-20 54-40 71-44 28-5 27 3 19 16a26 26 0 00-6 9c-8 13-18 27-17 38-1 54 7 46-59 46-18 0-41-7-56-5 22 8 47 4 70 8 5 10-6 9 14 1 16-5 46-4 25 14l-2 2 2-2c21-17 45-21 72-26 12 4 61-32 49-3-20 58-13 30 15-3 8-6 40-45 45-25-3 5-14 20-6 13 26-46 83-36 124-60 14-11 5 36-4 36s-2 2-2 6c-2 2-1 7 3 5 8 0 28 0 29-7-29 2-21-38-4-49 15 9 21 22 8 38 4-1 16-9 15 2-1 7 4 14 0 22 5-1 11-7 13 1 2 6-5 16-11 10 0 6-6 9-12 4 19 43-104 74-139 77-49 14 14 0 35-3 26 0 54-22 76-21-7 76-46 106-84 119 23 1 52-23 66-43 4-11 12-11 17 0 11 26 24 51 46 71l19 19 9 9c15 13 26 26 12 29-15 4-40 13-9 7 4 0 1 5 3 7 7-7 16-20 26-9 1-12 27-20 36-19-14 26-43 60-60 76 13 49-50 77-75 109-23 25-49 55-46 91 6-50 46-86 82-119 24-19 19 123 77 167-35-47-51-106-48-146 6-15 4-47 17-54 3 2 7 9 10 16l1 1c14 33 30 93 23 56 0-19-15-38-23-56l-1-1c-5-10-7-21-1-30 19-13 46-60 52-16 9 11 18 18 4 1-7-14-3-27 4-39 0-12 2-60 18-45a51 51 0 004 4 29 29 0 00-4-4c-11-14-5-26 9-39 63-71 13 35 135 67 24 4 31 24 40 43a18 18 0 001 2l-1-2c-3-8 1-15-1-22-3-2-4-6 0-6h7a62 62 0 0019 6c30 16 18 66 1 97 32-30 7-94 35-83a87 87 0 0014 7 64 64 0 00-14-7c-20-15-27-36-33-66-23-31-45-65-66-97 14-5 27 23 43 19 6 1 11 12 13 11 0-7 6-5 10-5-8-4-26-8-6-21-23-5-33-25-51-38-51-30-18-57 21-61a91 91 0 0015-1 82 82 0 019 1c27-4 53 5 78 1 11 1 56-37 49-11-35 70-72 63-141 78 36-2 71-10 105-21 12 23-2 38 34 60-15-16-43-49-17-68 26-12 41-28 44 10 33 9-22 68-9 71 7-25 40-80 36-20 16 2 15 33 18 46 2-17 43 26 75 27-26-12-58-18-71-47-23-48 12-6 28 3-19-21-45-35-41-67 0-22 17-42 31-49 17-29 47-55 57-90 1-1 3-3 5-1 6 8 15 13 23 19 19-17 47 23 70 29 5 3-8 11-3 10 31-11 33 43 28 44 14 9-13 43-23 54-18 19-4 3 8 2 19-30 37-63 17-97 46 5 112 20 168 9l3-1-3 1c-28 4-40-27-64-35 14 11 60 41 15 34-43 4-138-9-100-70 1-2 3-1 4 0 4 17 2-5 14 2 17 8 29 11 3-1-15-3-19-16-19-30-25-32 35-13 51-13 6 20 9-10 30 13 6 6 4 2 0-4-2-16 34 0 45 0 35 11 121 88 56 29-6-8-33-22-22-30-7-5-26 3-28-6 4-3 10-1 15-2-3-11-23 3-33-3-14-5-26-15-41-16-9 2-27-19-22-25 25 8 51 17 74 31 21 11 1-4-9-10-21-18-49-24-66-37zM267 835a5 5 0 001-2 16 16 0 00-3 1 61 61 0 00-6 4c-5 4-9 4-14 0l-2-1c-6-5-13-5-20-3a3 3 0 00-2 3 23 23 0 007 9 9 9 0 005 2c6 1 13 2 19-2l2 2-1 7a13 13 0 001 7 24 24 0 009 10 3 3 0 003-1 23 23 0 003-21 27 27 0 00-2-4c-2-4-2-8 0-11zm7-6a6 6 0 00-6 4 7 7 0 006-4zm-11 82l1-1a3 3 0 00-1 1zm-2 2l1-1a2 2 0 00-1 1zm-2 3a2 2 0 001-2 2 2 0 00-1 2zm-2 1a3 3 0 001-1 3 3 0 00-1 1zm-2 2a3 3 0 001-1zm-2 2a3 3 0 001-1zm-8-133a13 13 0 00-2 0l-6-1a51 51 0 00-6 1c-6 1-10 3-12 8-1 4-2 7 0 10 1 2 6 2 11 0a87 87 0 0016-14c1-1 0-3-1-4zm-30 71a23 23 0 00-15-7l-10-1a7 7 0 00-2 0 2 2 0 00-2 2 6 6 0 000 2c3 13 14 20 25 20l5-1a1 1 0 011 1 1 1 0 010 1c-7 2-12 5-17 9-6 6-9 13-8 21a42 42 0 008 17 3 3 0 003 1c7-6 13-13 15-22l1-5 2-1a8 8 0 012 2c2 3 3 2 5 0a17 17 0 001-2c5-9 5-19 2-29a2 2 0 00-2-1 3 3 0 00-1 0c-4 1-7 0-9-3l-4-4zm-30 92a40 40 0 006 9c5 4 10 5 15 3l7-2a3 3 0 014 2v8a16 16 0 004 9 65 65 0 006 6 3 3 0 004-1c4-7 4-14 1-22l-5-8-3-3c-5 1-9-1-12-3l-4-2a23 23 0 00-12-3l-3 1a15 15 0 00-7 2 3 3 0 00-1 4zm29 22a15 15 0 000-2c-1-3-4-5-7-4a20 20 0 00-4 2 19 19 0 00-8 12c-2 8-1 15 4 22a3 3 0 005 0c7-7 11-15 10-26v-4zm124-86a16 16 0 00-5 11 32 32 0 002 14 6 6 0 000 1 2 2 0 003 0 21 21 0 003-2c6-6 8-14 8-23v-4a3 3 0 00-4-2 21 21 0 00-7 5zm8-7h-4 4zm77 3a3 3 0 002 3l9 2c6 0 11-1 14-5a31 31 0 007-14 3 3 0 00-3-4l-13 3c-8 2-13 8-16 15zm2-41l6 1a44 44 0 006-1 45 45 0 009-2c4-2 8-6 8-11a3 3 0 00-1-3 23 23 0 00-9-1 24 24 0 00-19 11 14 14 0 00-1 3c-1 1 0 3 1 3zm28 47a3 3 0 00-4-1h-1c-9 3-15 10-18 18-1 2 0 4 3 4a28 28 0 0013-3 13 13 0 006-5c3-4 3-9 1-13zm9-19a22 22 0 006 9 3 3 0 005-1 25 25 0 003-13l-2-9-4-2c-7 3-10 9-8 16zm8-46a12 12 0 00-3 2l-5 14c4-4 6-10 8-16zm1-4l-1 3a5 5 0 001-3zm8 30a10 10 0 006 2 7 7 0 007-5 3 3 0 00-2-4l-2-1c-4 0-7 1-9 5a3 3 0 000 3zm75-56l2-7a34 34 0 01-10 0 32 32 0 00-5 0 22 22 0 00-16 7 3 3 0 001 3 17 17 0 009 4h8a2 2 0 011 2l-2 5-4 9a24 24 0 000 18 43 43 0 008 12c1 2 4 2 5-1a59 59 0 006-18 27 27 0 000-13l-3-9a16 16 0 010-12zm-38 28c-4 9-2 17 4 25a3 3 0 002 0 3 3 0 002 0 7 7 0 002-1c4-7 7-14 7-23a24 24 0 00-2-9 4 4 0 00-5-2 17 17 0 00-10 10zm45-44l-1 2a6 6 0 001-2zm4-6c-2 1-2 3-3 5a6 6 0 003-5zm41 135a26 26 0 006 8c2 2 5 1 7-1 4-4 5-10 5-16l-3-18a3 3 0 00-4-1 27 27 0 00-10 9c-4 7-4 13-1 19zM148 788h2l2-1c3 0 4-2 3-4l-5-10a22 22 0 00-14-11c-4-1-6 1-7 5v2c1 12 7 19 19 19zm161-169a3 3 0 00-1-4c0 1 0 8 1 4zm20 36v-3c-1 1-2 2 0 3zm16-277a14 14 0 00-1-1l-1 1a2 2 0 002 0zm32 7a1 1 0 010 1 19 19 0 01-4-1l-27-7a9 9 0 005 4l16 5 4 1a2 2 0 011 3l-4 6c-3 5-4 11-2 16 1 2 3 3 4 2 8-4 13-10 15-19a17 17 0 017-11l5-4-8 2a2 2 0 01-2-1 18 18 0 01-1-3c-1-8-7-13-13-18a11 11 0 00-2 0 2 2 0 00-3 1 49 49 0 00-1 8 12 12 0 005 10l5 4a1 1 0 010 1zm67 43a36 36 0 0026 12l6-1a4 4 0 003-4 17 17 0 00-9-13c-9-4-17-4-25 1-3 2-3 3-1 5zm32 76a3 3 0 003-1l1-5v-2c-1-5-6-9-12-8a3 3 0 00-2 3c1 6 4 11 10 13zm76 89a25 25 0 00-5-12c2 4 2 9 5 12zm50-236h-1zm72 17a17 17 0 00-1-4 26 26 0 011 4zm124 60a19 19 0 003 4 25 25 0 0010 7 3 3 0 004-1 13 13 0 000-7 11 11 0 00-8-8 24 24 0 00-4-1c-4 0-6 3-4 6zm-82-320a11 11 0 002 1c14 5 18 4 28-1 9-4 8-6 1-11l-2-1a19 19 0 00-11-4c-7 0-15 3-19 13a3 3 0 001 3zm177 64a4 4 0 000 3c1-2 2-7 0-3zm538 73a2 2 0 000-4 30 30 0 00-12-6 18 18 0 00-16 2 25 25 0 00-8 10c-1 2 0 4 1 4l12 2a31 31 0 0023-8zm-15 35a63 63 0 00-5-14 34 34 0 00-3-5 12 12 0 00-7-5 17 17 0 00-8 0l-8 1 1 4c2 8 7 14 14 18a43 43 0 0013 4 2 2 0 003-3zm70 89a15 15 0 002 1l1-1a2 2 0 00-3 0zm-89 176a3 3 0 00-1-3 55 55 0 00-21-5 27 27 0 00-7 0 21 21 0 00-14 12 29 29 0 00-4 14 3 3 0 003 4h3l11-1a35 35 0 0013-5 60 60 0 0017-16zm-17 49a6 6 0 00-1 0c-10 2-17 7-21 16a5 5 0 000 1 3 3 0 001 2l2 1a33 33 0 0010-2 12 12 0 006-3 22 22 0 005-12l-2-3zm-17-87v9a3 3 0 003 2 32 32 0 0016-10 20 20 0 004-20 36 36 0 00-6-12h-5l-6 6c-4 5-6 11-6 17v8zm-105-13a74 74 0 00-9-5c-6-3-12-2-18 1a27 27 0 00-9 10c-1 2 0 4 2 5l10 1 6 1a40 40 0 006-1 30 30 0 0012-8 3 3 0 000-4zm-136-35a34 34 0 00-12 3 13 13 0 00-7 10c-1 3 1 5 3 4a38 38 0 0015-5 12 12 0 006-8c0-2-1-4-5-4zm-111 178c3 0 4-2 3-4a18 18 0 00-4-6c-3-3-6-4-10-2a3 3 0 00-2 5c3 5 8 7 13 7zm-6 15a23 23 0 01-2 3c-1 1 3-1 2-3zm79 28a15 15 0 00-4-7c-7-7-15-9-25-6a3 3 0 00-2 4 35 35 0 0015 15 25 25 0 0011 3 10 10 0 007-2l-2-7zm292-47a3 3 0 001-2zm158 99c-5-7-11-11-21-10a29 29 0 00-4 0c-4 1-5 4-4 7a34 34 0 0010 14 45 45 0 0021 10 3 3 0 004-3 31 31 0 00-6-18zm-181 177h3c13 3 19-2 24-12l1-1a3 3 0 00-2-4c-6-2-12-2-17 0l-10 4-8 7h-3a5 5 0 00-4 4c-4 9-2 18 4 26l4 1a25 25 0 005-8c2-4 3-8 2-12l-1-3a2 2 0 012-2zm-12-11a52 52 0 006-1l5-1 4-4a17 17 0 004-9 76 76 0 000-17c0-2-2-3-4-2a38 38 0 00-16 15 50 50 0 00-4 8 21 21 0 00-1 5c0 4 1 6 6 6zm36-156a10 10 0 002 0l-1-1a10 10 0 00-1 0v1zm-86 150c-1 7 0 13 4 19a3 3 0 004 0 61 61 0 004-6 13 13 0 002-9l-1-5c0-2 1-4-1-6l-21-15a8 8 0 00-2 0l6 6c8 7 7 6 5 16zm-46-129a16 16 0 00-9-10 4 4 0 00-5 2c-2 4-3 9-3 14a34 34 0 006 18c1 2 3 2 5 0 7-6 8-15 6-24zm33 105l1 1a3 3 0 00-1-1zm-89-61c-3-2-7-3-12-3a32 32 0 00-18 7 3 3 0 000 4 22 22 0 0019 4 17 17 0 0012-9 3 3 0 00-1-3zm-35-24a23 23 0 00-15-6h-7a74 74 0 01-8 0 7 7 0 01-6-5l-4-7c-2-2-2-5-5-7l-6 5c-7 6-9 14-9 22a6 6 0 000 1 3 3 0 003 2 19 19 0 0011-9 24 24 0 001-3l2-3 2-2a7 7 0 012 2l3 5 7 12a8 8 0 003 3c6 1 11 3 17 1a52 52 0 008-3c4-2 5-4 1-8zm192 691c-5 9 15 20 20 28 7 29 25 17 27-7-7-15-33-14-47-21zm52 80c7-4-4-13-8-15-10 0 0 18 8 15zm-31-133c6 24 57 28 78 28-20-17-50-31-78-28zm11 110c-12 6 1 25 9 16-2-4-2-18-9-16zm-323-18c-1 3 0 6 2 8 15 8 5-27-2-7zm-161 108c-2 3 0 8 3 6 6-2 1-11-3-6zm-18 37c-5 6-2-10-4-12-17 1-33 31-35 48 18 37 19-17 22 24 21-12 25-55 22-79-12-9-4 14-5 19zm90 28c7-11-47-62-60-57-17 18 44 52 60 57zm-88-103c-1 37 18 12 31-3 3-14-29-8-31 3zm-93 59c11 8 24 43 39 30 19-17 39-45 50-56 13-34-102 13-89 26zm98-69c2-4-4-6-7-5-8 5 4 14 8 5zm53 228c5-10-78-87-66-49-52-91-37 26 66 49zm242-318c10-11 21-23 3-33-10 4-75 34-66 45-44-16-20 22-8 43 27 18 52-39 71-55zm-424 209c2 13-31 47-10 49-29 9-28 24 2 9 12-5 13-14-2-9 27-10 50-30 63-55-23-45-60-67-53 6zm275-218c5 10 8 27 19 30 42-13-64-93-19-30zm137-42c-8-15 5 8 11-3 6-17-28-14-42-25-20-6-40-16-60-22-7 3 2 14-4 20-5-30-39-46-65-57-11 25 21 59 44 71-38-17-42-41-40 17 6 10 59 56 56 23 3-13 0-36 2-44 11 17-6 33 6 54 4 6-14 3-6 13 17 29 57-5 80-17 14-9 35-14 18-30zm-182 26c-6 1-28 18-16 21 11 1 19-12 16-21zm-13 24c-29-5-53 25-81 31-12 3-18 14-13 25-7 0-8 21-2 24 16 19 114-65 96-80zm-34 57c-9 12-24 11-35 26 2 13 20-4 25-5 8-8 31-44 10-21zm42-27c16 11 39-4 57-5 6-10-10-25-13-36-21-50-27 23-43 41zM621 353zm827 257zm-147-58a38 38 0 00-11 6v1a32 32 0 003-1c8-2 15-1 22 3l4 3a5 5 0 005 1l15-7a10 10 0 006-11l-12-3a23 23 0 01-14-13 32 32 0 00-3-5 6 6 0 00-6-3 21 21 0 00-3 1c-2 0-3 1-3 2 5 6 10 23-3 26zm117 149zm-57-331a26 26 0 006 3 20 20 0 003-1 9 9 0 017 0c5 2 10 2 16 2a107 107 0 0017-5l22-7a169 169 0 00-27-2 184 184 0 01-22 3 96 96 0 00-22 7zm-51 16l24 8 10 3a11 11 0 006 0l2-6 2-7a4 4 0 00-3-5h-3c-39-2-47 1-38 7zm40 11zm68 304zm2-324l-37 3c-4 0-7 2-9 7 0 4-3 7-7 9a17 17 0 00-2 2 2 2 0 00-1 1 2 2 0 002 1 57 57 0 006 1l13-1a251 251 0 0129 1 192 192 0 0031 0 182 182 0 0024-3c2-1 3-2 1-4a50 50 0 01-9-15c-2-5-4-6-9-6l-32 4zm-184-171zm169 154l5-1a79 79 0 00-14 1l-18 3h5a123 123 0 0122-3zm-151 272c6-7 10-16 13-25h1l3-5a4 4 0 016-2l6 3a18 18 0 009 1 38 38 0 0015-5 3 3 0 001-4 29 29 0 00-12-9 38 38 0 00-6-1 22 22 0 00-10 2 24 24 0 01-4 2l-2-1a22 22 0 011-5 94 94 0 014-9 5 5 0 015-1 66 66 0 016 2 33 33 0 0018 3 49 49 0 006-1l5-2a7 7 0 016 2l1 1a108 108 0 016 9l1 1a9 9 0 01-2 9 48 48 0 01-7 7 165 165 0 01-26 17 310 310 0 01-43 19c-3-1-3-3-1-8zm44-28c4-1 10-2 12-6l-12 6zm-106 81a159 159 0 0024-1 44 44 0 009-1l4-2 11-4a17 17 0 013 0 1 1 0 010 1l-2 1c2 0 3 0 1 1v3l27 2a34 34 0 004 0 33 33 0 005-2l3-5a37 37 0 0115-12 58 58 0 0115-4h3l6-1a4 4 0 013 1c2 0 2 1 1 2a5 5 0 011 1l1 8v7a2 2 0 001 1 2 2 0 002 0 12 12 0 003-3l2-5a19 19 0 000-3v-8a8 8 0 014-7 57 57 0 016-3l7-4c1 0 2-2 1-3l-11-12a8 8 0 00-8-2l-8 2c-8 2-17 5-26 6-36 11-73 28-108 43a3 3 0 001 3zm69-412c2 7 5 9 8 8a7 7 0 002-2c2-5 6-9 9-14a88 88 0 0012-20 16 16 0 001-4c-10 12-20 23-32 32zm75 452l-1-1c-21-5-43-13-57 0l2 1a44 44 0 0112 3 71 71 0 0120 9 153 153 0 0116 11 34 34 0 003 1 24 24 0 004 1 2 2 0 002-1 108 108 0 002-19 5 5 0 00-3-5zm38-11a4 4 0 002 2 8 8 0 001 0l23-2 1-1a3 3 0 000-1 19 19 0 00-5-2h-1c-7-1-17 0-21 4zm-160 36a74 74 0 0027-10l7-6a8 8 0 002-2l-83 14a40 40 0 008 4 111 111 0 0023 2l16-2zm-88-35a4 4 0 002-1c-12 1-24 8-36 10a1 1 0 000 1l9-1a105 105 0 0025-8zM992 213l-7 1c3-5 12-12 7-10l1-2-8 4-2 1c-9-2 8-26 25-38a5 5 0 014 3l2 3a22 22 0 0015 10l6 1a17 17 0 013 2 2 2 0 010 3 17 17 0 01-3 3l-22 12-7 2c-2 2-5 2-7 3l-7 2zm3-11v-2a1 1 0 000 1 11 11 0 00-1 1 5 5 0 001 0zm-76 306v-1 1zm38 115c11-8 18-18 23-29a4 4 0 000-2 1 1 0 000-1c-20 13-40 28-59 42l-4 4a9 9 0 00-1-1l-17 13a4 4 0 002 2 30 30 0 007-4l5-4-2 6a2 2 0 001 1 80 80 0 0012-4l5-3 28-20zm-93-9l62-37a661 661 0 0075-58l7-6c1-1 1-3-1-5l-23-12a11 11 0 00-8-1l-21 3c-2 0-4 0-6 2 0 2 2 2 3 3a19 19 0 019 10l4 14a2 2 0 01-2 3l-13-2a25 25 0 01-16-12l-2-4-2-2a5 5 0 00-6-2 12 12 0 00-2 1l-18 15h-1a554 554 0 00-43 78c-4 9-2 12 4 12zm369-186a11 11 0 002-2c1-2 0-4-3-6-6 0-11-2-14-4a13 13 0 01-7-7l-2-4c-3-8-4-17-4-25l1-5v-1a22 22 0 00-2-3c-41 19-98 21-108 75a205 205 0 0027-1l43-5 40-4a165 165 0 0020-4 32 32 0 007-4zM924 720v-4l8-3a6 6 0 002-2l-1-3a8 8 0 00-7-1 47 47 0 00-5 1 15 15 0 01-8 0 41 41 0 01-17-10 2 2 0 010-2c6-4 12-7 19-7a14 14 0 0111 4l4 5a2 2 0 003-1l2-3c3-6 5-9 0-17a26 26 0 01-2-15v-4a3 3 0 00-3-3 13 13 0 00-7 1l-6 2a82 82 0 01-17 3c-18 1-34 9-47 20a118 118 0 00-19 22 93 93 0 01-6 8c-14 26-17 58-4 79a64 64 0 009 8 57 57 0 0014 8l17 7a102 102 0 0020 0l2-1c14-8 27-17 38-30a288 288 0 0120-23h1l8-12a27 27 0 00-3-21 5 5 0 00-5-3l-10 1a18 18 0 01-11-4zm312-514zm-257-12l4-6c7-12 17-21 31-25l21-6 1 1-1-1-4 3v3a10 10 0 00-2 0l1 1c5 4 8 9 10 16a39 39 0 002 5l3 1a22 22 0 008-5 23 23 0 002-3 28 28 0 00-1-14c-3-5-9-9-12-15l-7-5a37 37 0 00-9-5l-6-3c-6-2-10-1-14 4a17 17 0 01-1 1c-6 8-15 9-24 9-1 0-2-1-1-2a14 14 0 010-2c2-6 6-10 12-13a20 20 0 003-2l1-1-1-1-8-3c-12-3-24-6-33-10-5 1-5 6-1 13l3 7c7 11 16 25 16 32 5 6 2 23 7 26zm125 384a12 12 0 002 4l4 1 7-1 11-3a5 5 0 002-4 48 48 0 00-5-13 3 3 0 00-4 0c-4 7-12 11-17 16zM973 329zm303-31l-14 15-19 22a322 322 0 00-29 45c-3 14 2 27 9 32a22 22 0 003 0 25 25 0 003 1 5 5 0 001 0 7 7 0 003-2 21 21 0 001-5l2-17 1-6a33 33 0 011-7v-2a40 40 0 010-7 15 15 0 018-10l8-4 7-4a3 3 0 002-3v-5c0-12 4-22 12-31a3 3 0 014 1 48 48 0 015 11 14 14 0 01-2 12 39 39 0 004-4c-4 6-6 9-5 11a54 54 0 005-3c6-3 12-6 18-7a18 18 0 008-4l11-9v-5l-9-8a30 30 0 01-9-20l-1-7a2 2 0 00-2-1 214 214 0 00-23 18l-3 3zm55-3a12 12 0 000 4 2 2 0 002 0l12-9c11-6 10-5 9-19v-6l-1-7a4 4 0 00-3-2c-14 3-28 8-41 16l8 4c8 4 13 10 14 19zm-88 151c-10 8-36 2-39 12l10 3a109 109 0 0020 2l24-2a4 4 0 001-1 20 20 0 003-2 4 4 0 001-2v-1a21 21 0 00-8-10c-3-2-8-2-12 1zm-33-128c-3 13-1 18 4 17a17 17 0 001-1 141 141 0 0019-16 343 343 0 0023-27 35 35 0 01-11 5 38 38 0 01-8 1c-13 3-26 6-28 21zm-249-40c0 13 4 25 8 37l4 13a51 51 0 01-5-2c-5-3-11-4-17-2a37 37 0 00-5 2 3 3 0 00-2 3c3 7 8 12 15 14 3 2 7 2 11 3 7 2 8 3 8 10a105 105 0 01-5 31 110 110 0 01-16 32 12 12 0 01-1 1c-1-4 2-20 7-40l-1 1a1 1 0 000-1l-1-1a1 1 0 00-1 0 19 19 0 00-2 4l-7 15a11 11 0 01-2 3 2 2 0 01-1 0l-4-4-2-3h-2a14 14 0 01-3-1c-7-3-13-2-20 0a62 62 0 00-6 3 2 2 0 000 2c7 7 14 13 24 13l8 1a3 3 0 012 3 57 57 0 01-2 6 112 112 0 01-24 44 128 128 0 01-22 19 20 20 0 01-2 1c-3 0-4-3-3-10-2-46 25-85 26-129 0-23 28-56 43-68zm-19 80c-4 6-6 12-6 20a3 3 0 001 1l2 1 11-6c9-4 13-11 14-19a1 1 0 000-1l-1-2a19 19 0 00-4-1l-9 1a12 12 0 00-8 6zm26 281l-1-5c0-1-1-2-3-2a13 13 0 00-7 1l-2 1a120 120 0 01-16 13 3 3 0 002 3 16 16 0 0010 2l6-1a3 3 0 013 1c1 3 3 3 6 2a3 3 0 002-4 11 11 0 01-1-6 44 44 0 001-5zm4-16a2 2 0 00-1 0 13 13 0 00-4 2 2 2 0 000 1l2 1a4 4 0 003-1v-3zm12-242l11-5a6 6 0 01-1 2 5 5 0 012-1c-7 10-33 29-26 40l25-13a26 26 0 008-7l5-4a3 3 0 000 2l1-1a4 4 0 001 1c5-1 7-6 5-10a26 26 0 00-3-3l-8-15-1-3c-6-5-11-3-19 15a3 3 0 000 2zm-251-59c-6 0-20-3-36-7l-13-4-40-11a6 6 0 00-6 1 45 45 0 00-8 12 2 2 0 000 2l25 7h7a84 84 0 0121 6 48 48 0 0018 3l9-1 22-3h3c2-2 2-3-2-5zM375 752l-18-7a71 71 0 00-20-6c-11-2-21-6-31-10-3-2-3-4 2-7 8-3 11-15 19-11h1l1 1a49 49 0 0014 11l2 2a15 15 0 0010 3h6c17 2 35-2 53-2a35 35 0 014 2l8 9a13 13 0 010 4c-4 4-6 8-8 13a4 4 0 01-1 1l-3 2h-7a162 162 0 01-32-5zm23-4l4 1c7 0 13-3 17-8 1-2 0-4-1-5a12 12 0 00-12 0 34 34 0 00-10 7 6 6 0 00-1 2l3 3zm345-68l-2 3c-4 3-10 3-17 1a327 327 0 00-32-16 142 142 0 01-19-10 102 102 0 01-14-11c-9-9-14-21-17-33a21 21 0 00-1-12l-1-1c-3-34 8-73 15-105 2-3 4-4 9-2 8 3 16 2 23-3l-2 5-3 6c-2 7-1 10 6 9a23 23 0 0015-7l6-7a7 7 0 017-1h1l24 12 18 9a30 30 0 014 2c2 2 2 4 0 6l-4 6a19 19 0 00-2 14l5 12 3 6c0 3-2 3-6 3l-3-1a49 49 0 00-19-2 21 21 0 01-6 0c-6-5-10-20-15-19l-1-1-2-13a17 17 0 00-8-12l-2-1a3 3 0 00-3 1c-3 6-4 12-1 17l3 5a2 2 0 01-1 1l-5 1c-2 4-6 5-9 8-6 8-9 17-6 26a6 6 0 001 2 3 3 0 003 1 70 70 0 0010-7c-2 2-5 3-6 6 2-2 9-4 7-7l3-3a24 24 0 005-10l3-8a4 4 0 015-2l5 2a10 10 0 013 4c3 7 3 7 9 13 1 2-1 4-2 5-3 5-3 10-1 16a27 27 0 004 8 2 2 0 003 1 39 39 0 008-10 20 20 0 002-12v-7l3-3c12 3 23 9 30 17a32 32 0 012 7c2 10-2 19-11 24l-5 3c-5 2-6 5-5 10l2 4a25 25 0 010 12 52 52 0 01-2 6c-4 11-8 21-14 32zm-73-156l1 6a10 10 0 004 7 23 23 0 005 2c4 1 7-1 7-4a15 15 0 000-8 29 29 0 00-12-14 2 2 0 00-3 1l-2 10zm9 19l-2-2a19 19 0 00-9 0 9 9 0 00-7 5 25 25 0 00-2 11l3 2a13 13 0 009-3 33 33 0 008-11 8 8 0 000-2zM571 740a1 1 0 000-1l-1-1a59 59 0 00-12-6 2 2 0 000 1v2a29 29 0 00-11-7c-7-1-14-1-16 2a52 52 0 005 4 77 77 0 0015 7 40 40 0 008 1 3 3 0 001-2 27 27 0 000-3l6 4a7 7 0 004 0 3 3 0 001-1zm123 14a106 106 0 01-6-30 89 89 0 00-14-20l-40-34-2-2a143 143 0 01-13-10 42 42 0 00-6-3c-3-2-5-5-5-9v-3a27 27 0 000-4 55 55 0 01-1-6 31 31 0 00-1-5 128 128 0 01-8-29v-1c-3-2-9 3-25 16a48 48 0 002 14l8 18c7 10 16 18 26 26l8 5a20 20 0 018 8l2 1a97 97 0 0033 40 59 59 0 0121 18 128 128 0 0114 13 2 2 0 000-1 10 10 0 00-1-2zm-34-461a95 95 0 0020 12 42 42 0 004 2l16 2a4 4 0 002 0 2 2 0 001-1 2 2 0 000-1 33 33 0 00-5-4 120 120 0 00-16-7 63 63 0 00-22-3zM512 726a94 94 0 00-12-2c-11-1-24 2-33 2h-1l-4 2a11 11 0 01-6 4 7 7 0 016-4 11 11 0 00-1-3l-1-1a26 26 0 00-5-1h-4c-10 1-14 9-1 11a12 12 0 002-1l-1 1h3c-11 4-20 11-20 23a60 60 0 008 1h4l72-10 19-2a16 16 0 003-1c1-1 1-3-1-4l-1-1a662 662 0 00-26-14zm188-428zm-7 192l-6 1h1l5-1zM498 766a2 2 0 001 1 5 5 0 002-1 3 3 0 001-1 4 4 0 00-4 1zm5 16a10 10 0 003-3 2 2 0 000-1c-4-3-20 4-24 7l18-2a10 10 0 003-1zm-209-67c2-2 5-3 6-6 3-4 7-5 12-4h4c9 0 18 3 25 10l21 9h2l20-2 24-2 7-2c1-2 3-2 5-1l7 1a41 41 0 0013-2 4 4 0 002-2l-21-8-50-14-32-7v1l-5 6c-5 7-12 10-21 10h5c-2 0-6 1-7-1-3-1-3-2-1-5l7-10a13 13 0 002-3 2 2 0 00-1-1l-9-2a126 126 0 01-28-4l-12-2c6 7 6 19 14 25l3 2v1h1c5 2 3 11 6 13a2 2 0 001 0zm219 63a2 2 0 000 2 19 19 0 003-1l1-1-1-1a2 2 0 00-3 1zm0-14a106 106 0 0024-5c-8 1-18 1-24 5zm-61-62l3 1a4 4 0 005-1l4-6a17 17 0 014-3 8 8 0 019-1c1 1 2 3 1 5a18 18 0 01-2 3l-5 4-2 2a2 2 0 000 2l5 2a112 112 0 0012 2 65 65 0 0011 0c2 0 3-2 3-3a48 48 0 00-2-7 56 56 0 00-7-7 14 14 0 00-1-1l-1-1a65 65 0 01-7-5 70 70 0 01-8-9 48 48 0 00-6-5 5 5 0 00-6 0l-5 3c-5 4-11 5-18 3a3 3 0 01-2-3 19 19 0 012-4l7-7a2 2 0 000-3c-2-2-5-4-6-7l-9 11c-3 5-8 9-15 10l-6 2a26 26 0 00-5 1 3 3 0 00-1 2 1 1 0 000 1l21 10 27 9zm-17-47l5 1zm116 113a1 1 0 001-1c-3-2-16 3-20 4a3 3 0 001 1 47 47 0 0018-4zm256-606c-1 10 5 16 13 20h2l29 3a40 40 0 006-1 2 2 0 000-1v-3a52 52 0 01-6-12 7 7 0 00-6-2l-6 1c-9 0-18-2-25-7l-4-3a2 2 0 00-2 1l-1 1a19 19 0 010 3zm200-35zm161 170a4 4 0 001 0 19 19 0 002 3 27 27 0 004 3l2 2-9-8zM716 181l1-2a15 15 0 00-4-11 5 5 0 00-2-1c-1 3 1 13 4 15l1-1zm369-66a172 172 0 01-5-17 1 1 0 011 0 13 13 0 012 2l6 5a24 24 0 0017 5h9a5 5 0 014 3 25 25 0 011 5c1 9 5 16 11 23l3 4v13a23 23 0 01-2 2l-4 4-4 3a18 18 0 00-7 17 119 119 0 004 14l4 12a21 21 0 011 7 35 35 0 01-7 14 15 15 0 01-1 2l-7 4a116 116 0 00-27 25l-7 10a31 31 0 00-5 13 37 37 0 00-1 9l-1 7a2 2 0 01-1 1 39 39 0 01-6-1l-3-1-17-8a27 27 0 01-7-7 3 3 0 011-2l8-3a85 85 0 009-5 15 15 0 006-8 4 4 0 00-2-5c-5-2-11-3-16 1a21 21 0 01-4 2l-2-1a9 9 0 010-1l2-8a3 3 0 012-1 45 45 0 017 0 34 34 0 0011 0 26 26 0 0015-9 4 4 0 00-1-5 25 25 0 00-11-5 17 17 0 00-12 2l-4 2-2-2v-1a26 26 0 000-3 19 19 0 015-9l5-5a23 23 0 006-17 7 7 0 00-1-1 3 3 0 00-3-2c-6 2-11 6-13 13a63 63 0 00-3 23 160 160 0 00-7 19v1l-1-1-2-3c-4-7-10-9-17-9-2 0-3 2-3 4a19 19 0 007 15l5 3a23 23 0 014 3 8 8 0 013 7l-2 6c-1 7 2 12 8 16a45 45 0 007 4l2 1c10 8 23 12 31 21a47 47 0 018 21 48 48 0 01-2 20 56 56 0 01-2 7c-5 9-7 19-10 29a69 69 0 00-4 21c0 10-2 20-6 29l-5 11a37 37 0 01-3 5 3 3 0 01-5 0l-3-3-3-4c-6-5-14-6-21-1a44 44 0 00-9 8 10 10 0 016 2 32 32 0 0010 4 31 31 0 0013 0c2-1 5-2 6 0s-1 4-2 5l-24 27a16 16 0 01-3 3 2 2 0 01-2-1 14 14 0 01-2-3l-3-7c-3-4-7-7-13-7a20 20 0 01-4-1l-1-2a6 6 0 011-2l10-10a33 33 0 002-3v1-1l-5 4-14 10c-8 8-17 10-28 11l-12 2a44 44 0 00-21 8l-4 2a6 6 0 011-4l8-12c27-34 59-64 97-87v-1l3 3c5 5 12 7 20 7a35 35 0 007-1c3-1 4-2 2-6a36 36 0 00-7-9 14 14 0 00-11-4l-7 1a63 63 0 00-2-7c-4-16-25-30-17-37a6 6 0 014 1 15 15 0 013 3c7 10 17 13 28 13a12 12 0 002 0 2 2 0 001-3 31 31 0 00-9-15c-1-1-3-2-3-4l4-2h4a15 15 0 00-2 0l1-1a1 1 0 100-1l-23 2-9 2c-6-1-8-6 2-25a8 8 0 00-2 0l1-1a8 8 0 000-3h-1a11 11 0 00-2 2l-7 6 2-8a16 16 0 00-4-13 29 29 0 00-17-9c-2-1-4 1-4 3 0 6 2 11 5 16a45 45 0 009 9l7 5-2 5a36 36 0 00-3 16 13 13 0 01-4 9l-8 9c-6-9-1-30-8-41-5-11-9-22-11-31a4 4 0 013-3l4-1a28 28 0 0016-13 83 83 0 004-9 3 3 0 00-2-4 38 38 0 00-12 0c-6 2-10 4-13 9l-1 3a36 36 0 0110-23l4 2 3 2c6 5 12 5 19 3a2 2 0 001-3 23 23 0 00-11-12 2 2 0 01-1-2 92 92 0 0115-5l8-2 1-1h-8a41 41 0 00-6 1 17 17 0 01-5-1h-6c-5 7-12 11-19 16 4-16 17-22 32-27v2a8 8 0 002-1 33 33 0 014-3c12-4 25-9 34-18 34-28 45-47 46-63l1-1c3-6 3-13-1-19a67 67 0 01-4-6zm-80 354zm12-22a9 9 0 00-3-7 19 19 0 00-9-5 3 3 0 00-3 3c-1 7 2 12 8 16a7 7 0 001 1 4 4 0 004-1 10 10 0 002-7zm35-84a8 8 0 011 3c0-1 0-4-1-3zm-125-72c6-5 10-11 15-17l1-3a4 4 0 00-2-4 53 53 0 00-15-4 3 3 0 00-3 3v6h-1l2 13a25 25 0 002 7 2 2 0 001-1zM782 395a1 1 0 001-1l-7-5c-6-3-12-5-17-9-6-2-12-2-16 5a10 10 0 004 5 106 106 0 0029 6l6-1zm10-69c-7 12-11 28-8 33 5 0 9-2 12-7l5-8a33 33 0 006-16 73 73 0 012-9 44 44 0 00-3-9l-1-2-24-31-3-3c-2-3-4-3-6 0l-8 12c-2 3-2 5 1 8l3 3c11 8 23 16 24 29zm62 67a149 149 0 00-9-27 224 224 0 00-26-43h-1c-9 3-7 26-17 33-6 11-18 6-26 10a33 33 0 0011 12l26 8 1 1 4-1a7 7 0 00-1-3 37 37 0 00-1-3 18 18 0 01-2-8 18 18 0 012-9 67 67 0 019-12 2 2 0 013 0 63 63 0 017 12 27 27 0 011 18l-2 6a7 7 0 003 7 82 82 0 0116 7 3 3 0 001 0 25 25 0 002-7l-1-1z"/>
  <path fill="url(#linear-gradient)" d="M341 880h4a38 38 0 01-4 0zm-77-89c41 15 44-13 79-8-24-12-53 17-79 8zm43-176c0 1 0 8 1 4a3 3 0 00-1-3zm21 40v-3c-1 1-2 2 0 3zm-18 46l7 1-7-1zm164-438a21 21 0 00-3-7l3 7zm199 112a17 17 0 00-1-5 24 24 0 011 5zm-17 4l-9-4a21 21 0 009 4zM793 54l-1 9c1-2 3-14 1-10zm103 108a30 30 0 00-5-15l5 15zm-4 16a4 4 0 000 3c1-2 2-7 0-3zm240-112v-4c0 2-2 3 0 4zm20 31c-3-2-3 5-7 4-2 5 6-2 7-4zm190 433c-3 2 2 6 1 10 3 1 0-8-1-10zm-33 68c-4 3-8 3-11 6 3-1 9-2 11-6zm140 803c17 14 45 19 66 37 10 6 30 21 9 10-23-14-49-23-74-31-5 6 13 27 22 25 15 1 27 11 41 16 10 7 30-8 33 4-5 0-11-2-15 1 2 9 21 1 28 6-11 9 16 22 22 30 65 59-21-18-56-29-11 0-47-16-45 0 4 6 6 10 0 4-21-23-24 7-30-13-16 0-76-19-51 13 0 14 4 27 19 30 26 12 14 9-3 1-12-7-10 15-14-2-1-1-3-2-4 0-38 61 57 74 100 70 45 7-1-23-15-34 25 8 37 42 67 34-56 13-124-3-171-8 20 34 2 67-17 97-13 1-26 17-8-1 10-12 37-46 23-55 4-1 3-55-28-44-5 1 8-7 3-10-23-6-51-46-70-29-8-6-17-11-23-19-2-2-4 0-5 1-10 35-40 61-57 90-15 7-31 27-31 49-4 32 22 46 41 67-16-9-51-51-28-3 13 29 45 35 70 47-31-1-72-44-74-27-4-13-2-44-18-46 4-60-29-5-36 21-13-4 42-63 9-72-3-38-18-22-44-10-26 19 2 52 17 68-36-22-22-37-34-60-35 11-69 19-105 21 69-15 106-8 141-78 7-26-38 12-49 11-25 4-51-5-78-1-45-8-106 25-45 61 18 13 28 33 51 38-20 13-2 17 6 21-4 0-10-2-10 5-2 2-8-10-13-10-16 3-29-25-43-20 21 32 43 66 66 97 8 36 15 59 47 74-49-36-13 42-49 75 20-38 34-103-27-103-4 0-3 4 0 6 2 7-3 15 2 24-9-20-17-40-41-45-122-32-72-138-135-67-15 14-21 27-5 43-19-26-23 28-22 41-6 12-11 25-4 39 14 17 5 10-4-1-6-44-33 3-52 16-15 25 25 57 25 86 8 48-18-58-34-72-13 7-11 39-17 53-3 41 14 100 49 147-59-44-54-186-78-167-36 33-76 69-82 119-3-36 23-66 46-91 25-32 88-60 75-109 17-16 46-50 60-77-9 0-35 8-36 20-10-11-19 2-26 9-2-2 1-7-3-7-31 6-6-3 9-7 25-5-33-44-40-57-22-20-35-45-46-71-5-11-13-11-17 0-14 20-43 44-66 43 38-13 77-43 84-119-22-1-50 21-76 21-21 3-84 17-35 3 35-3 158-34 139-77 6 5 12 2 12-4 6 6 13-4 11-10-2-8-8-2-13-1 4-8-1-15 0-23 1-10-11-2-15-1 13-16 7-29-8-38-17 11-25 51 4 49-1 7-21 7-29 7-4 1-5-3-3-5 0-4-6-6 2-7s18-46 4-35c-41 24-98 14-124 60-8 7 3-8 6-13-5-20-37 19-45 25-28 33-35 61-15 3 12-29-37 7-49 3-28 5-52 9-74 28 24-20-7-21-23-16-20 8-9 9-14-1-23-4-47 0-70-8 15-3 38 5 56 4 66 1 58 9 59-45-2-28 61-74 4-63-17 4-76 24-71 44-1 2-14 0-14-3 6-3 18-13 5-14 23-14-12-9-21-1 1 6 15 1 21 1l-48 11c-20 8-40 21-60 35 8-12 27-20 30-34-14-8-55 14-29-5-11-16 22 7 34 1a111 111 0 0041-11c36-20 70-21 3-24-46-5 27-3 46 0 11 1 35 2 38-9-5-2-23-9-10-6 47 12 97-13 143-15 22-9-18-6-9-13 5-1 24 12 22 0-15-15-42-2-54-19 21 4 48 18 69 9 17-16 54-27 18-44 19 29 104-16 63-20h-31c19-4 46 2 60-11-10-4-26 7-38 2 17 2 157-41 89-37-21 5-38-6-58 11 1-5 13-13 0-12-18 1-90 21-47 4 2-1 2-4 0-6 2 1 7-2 3-4-19-4-43 0-63-5 16 1 23 3 6-10-3-3-12-10-3-6 54 26 118 25 173 18 7-3 23 0 26-8-6-8-38 1-26-8 16-9 30 7 48 2 8-2 19-5 22-12-9-2-2-4 4-6 61-48-26-12-51-9-21 16-49 31-76 26 14-3 53-27 17-18-20 4-48 11-64 8l34-5c64-5 113-52 172-73 65-41 91-182 45-241-40-51-115-38-169-40 54-22 74-5 3-33-9-3-42-18-22-26 48 19 98 37 150 42-5-23-44-33-54-57-22-45-76-52-110-31-24 4-93 52-99 32 14 5-6-19-14-5-3 2-6 6-10 6 3-4 6-9-3-5-97 31-17 57-95 62 17-5 37-9 40-28 0-5 1-10-6-6-44 28-69 43-108 82 3-12 49-45 68-63 147-75 19-51-52-19-23 2 72-33 94-33 4-8-18-12-24-11 11-13-5-29-20-24-57 25-121 7-177 32-32 9 53-16 25-22-4-3-21-2-20-7 3-8-13-3-15-6-15 1-81-29-45-18 37 12 78 28 116 26-12-16-72-33-25-21 16 7 28 27 45 14 31-2 58 12 86-9-4-10-33-12-44-23-32-18-69 2-104-8-35-7 36 0 53-5 12-8 66 13 49-8-8-5-31-5-33-14 5 0 15 8 18 3 2-41-43 15-99-14-7-10-22-18-36-19-13 1-5 3-2-7 6 7 20 5 28 11 17 15 40 22 63 16 31-6 60-14 93-4-11-12-33-21-45-34 15-42 1-19-22-44-21-30 20 12 34 15-13 28 9 41 33 48 75 28 63 28 21-34-6-25-39-27-47-46 8-14-9-14-19-16-4-17 21-1 29 3 1 7-9 16 1 20 43 14 51 67 92 83 6 18 150 69 103 25-15-9-33-37-7-13 4 5 6-1 4-5 0-13-18-30 0-23 0-4 8-9 5-13-5-1-31-16-16-13 112 52 8-74-83-61-31 2-13-19-53-23 9-3 30 2 35 13 13 13 38 6 56 11 4-4-1-21-5-27-2-9 13 5 11 12-2 25 38 15 53 26 32 15 40 54 71 69 17-21-13-40-31-50 7-5 21 13 30 14 14-8 35-21 35-38-27-47-99-22-96-93-17-49 11 12 12 34 13 17 41 14 60 26 7-9-17-33-21-46-7-16-27-20-34-37-11-40-23-88-72-90-17-3-33 5-47 13 7-19 38-10 45-21-32-19-72-10-103-35-5 1-33-32-16-21 31 32 72 35 113 42 31 12 79 65 69-1 15-48-55-39-62-80 8-2 11 28 27 24 38 6 52 35 49 72 2 30 11 101 39 42 5-28 0-57 5-85 15-32 18-62-15-82-8-18 47 26 36 47-16 44-18 87-10 133-8 12-17 24-15 40 29 25 62 43 73 84 16-30 19-62 7-93 15 37 22 40 22-5 5-21-7-39-17-56-15-17-29-25-34-48 6 12 19 29 32 40 26 20 17 57 33 81 20 20 28 13 35-12 1-19-24-30-30-48 11 9 23 26 35 38-4 34-23 31 8 57 41 28 79 30 27-20-4-15-5-37 0-52 0 15-1 33 11 48 1 2 3 2 5 0 5-12 20-9 30-12-59 15 0 28-13 59-24 20-8 42 11 59 26 1 61-45 58-72-7-27 16-60 2-82-37-27-78-20-120-30 33-48 34-68-36-57-29-5-59-12-88-22-21-13 56 14 73 15 11 8 66 1 49-6-26-2-159-41-80-26-10-11-25-17-34-28 35 18 34 36 34-11 4-10-1-30 8-32-15 89 6 55 80 88 26 2 32 24 34 41 34-57-23-27-41-114 3-5 17 31 21 45 10 14 35 22 37 41-12 21-16 54 11 19 24-37-25-70-48-94-16-25-69-72-66-83 38 35 21-16-20-15-12-9 21-23 5-38 3-5-1-12 1-17 5 5 4 17 12 21 6 6-3-1-4 3-1 9-5 17-8 25 3 5 34 9 20-2 0-4 7 5 7-1-2-8 7-10 8-19-2 37-2 20 17 48 4 26 9 49 31 65 95 74 24-31 41-29 6 23 27 45 9 63 18 22 39 42 53 67 8 6 10 30 22 25 11-49 26-111-3-154-20-23-65-6-80-34 9-34-19-55-38-81 0-6 48 43 45 67-2 25 37 28 52 21-25-37 13-44-17-70 37 16-11 52 56 86 35 26 11 168 55 46 47-51-2-112-28-157 26 35 73 31 107 49 35 16 27 56 53 2-6-29-26-69 4-90-38 70 50 76-45 155-22 23-67 15-73 48 14-10 25-19 44-17-54 12-60 42-37 90 8 12 1 34 9 42 16-8 13-52 29-47-22 42 14 16 31 23-81 3 5 31-22 61a448 448 0 00-164 198c-25 53 149-85 159-98 30-29 47-61 49-104 57-129-78-53-29-169 9-6-6 34-7 47 1 15 27 24 38 24-6-45 57-55 56-92-28-69 36-17-7-98 21 45 35 27 3 67 3 37 22 52 42 8 16-14 22-33 23-57-12-83 23 28-17 70-16 31-51 42-71 69-22 41 17 62-8 121 47-36 160-20 73-96 8 5 30 33 36 17 21-36 62-1 40-62-1-12-14-26-6-37 14 12 11 43 27 53 37-16 29-56 45-84 20-5 16-75 21-38 3 24-56 106 3 53-5 14-23 25-20 43 3 7-20 28-5 23 38-20 86-9 118-40-11 25-47 31-73 34-57 10-111 75-137 124-7 29 24 53 24 10-7-37 32-36 48-60-14 23 4 4 20 2 16-4 20-23 29-32 5-6 21-12 21-19l28-17c-14 20-43 27-51 50-29 43-108 26-89 99 30-98 192-1 213-99 19-45 23-51 9-2-7 19-14 37-30 51 37-13 49-11 6 3-3 2-16 3-11 7 70-2-55 8-83 6-74-4-36 12 9 21 33 2 169 0 80 4-22 7-59-7-76 6 20 28 55 25 85 33 40 7-69-1-80-23-1-3-5-1-4 2 1 22 1-18-15-14-39-27-90-28-85 31 2 7 17 22 4 26-60 12-164-39-193 36-20 31-47 55-76 77-22 37-51 79-97 83-88 6-129 161-12 150 36-18 59-52 76-84 27-10 26-39 41-59 10-12 52-26 30-42 2-3 7 2 6-3-16-27 23-29 32-48 0 15-29 20-30 35 4 8 4 26 16 18 18-11 6-37 23-49 16-12 32-23 27-46 9-18 2 18 9 20a224 224 0 0133-15c7-6-2-37 10-8 1 24-37 11-40 32-4 7-12 11-17 16 8 18 37-8 48-15 12-12 37-11 46-24 10-11 26-35 14-7-11 22-38 21-57 34a94 94 0 01-60 25c-10 46-48 56-76 91-22 36 7 34 33 21 11-9 28 1 35-10 29-40 35-8 71-56 12-7 16-17 16-3-12 9-31 16-34 33-50 12-64 40 0 25 43-22 119-45 117-102 11-1 11-9 15-21 3-18 48-18 26-43 4-10 22 22 3 26-33 13-25 56-47 80-13 27 63-19 72-28 25-13-15-31-1-38 8-5 22-7 21-18-1 0 10-7 13-14 3 9-10 28-22 31-16 4 2 26 10 13-4 24-24 41-41 55 42-23 102 13 138-17 13-7 28-26 46-21-11 6-29 9-37 23-25 26-70 13-98 10-55 5-112 31-164 54-2 15 62-9 51-2-5 8 23 3 29 6 17-5 27-28 51-24 9 1-4 5-8 4-21-1-24 24-41 27-29-3-60 3-86 13-23-3-55 3-64 21 72 12 155-10 207-45 16-31-6-23 41-40 15-4-17 13-25 15-20 25 29 0 39 4 26 4 59-6 78-9-22 25-77 4-105 21-17 11-33 25-52 31 24 8 48 16 70 4 14-9 29 6 40-6 11-1 22-20 38-21 2 2-2 3-4 4-10 6-51 36-18 26 19-3 105-45 76-22-7 3-38 5-30 13 3 2-2 3-4 3-51 12-1 21 22 28-18 5-33-11-49-12-26-3-51 6-78 6-28 8-69-24-91-2 27-1 86 50 36 17-6-1-2 8-4 11 3-15-10-23-25-23-35-7-59 38-99 26 30 26 56 68 79 103 25 29-3-5-13-4-50-146-232-115-124-107 12 7-40-5-20 12 6 10-20-11-28-17-30-7-67 3-89 25-15 16-10 39-21 54 27-12 51-29 80-35 18 20-34 22-44 35-38 25-84 48-112 83-12 31 7 58 14 87 7 40 11 83 33 118 37 46 93 80 142 114 36 11 73 35 110 34 8-5 19 4 27-6 9 0 14 10 23 6 50 7-35-1-37 7 12 2 71 32 62 5 22 33 84 21 121 36 19 6 40 19 57 5-2 1-2 3 1 4 1 1-7 5-3 7 17 15 69 19 67 40 1-1-17-17-31-20-15-2-45-19-53-11 12 22-6-6-17 7 0-9-4-10-11-9-2 2-8-1-2-1 7-10-31-19-35-5-2-21-40-13-59-16-12 1-133-35-93-7 16 7 19 37 36 38 23 3 75 4 112-4 5 1 0 11-2 14-17-18-59-4-83-4 29 23 66 31 102 39 133 23 276 11 419-31-91 40-242 45-344 49zm-49-686c1-8-20-7-26-1 2 7 19 0 26 1zm-149 17l-85 14c22 14 68 8 85-14zm-82-100l1-1a3 3 0 00-1 1zm-41 82c-12 1-24 8-37 10-2 6 33-3 37-10zm306-351c-24-4-51-4-73 7 17 12 51 0 73-7zm-231 95c17 5 48 11 60-2-2-10-12-16-21-10-10 8-36 2-39 12zm90-219c-10 13-20 24-33 34 6 28 32-22 33-34zm-34 50c-12 12-47 4-50 29-10 46 41-14 50-29zm-27 131c-30 1-21-34-28-49-41 19-98 21-109 75 13 1 162-6 137-26zM980 591c-29 18-56 40-82 58 5 13 80-25 82-58zm0-396c3-20 58-45 50-32-20-10-66 48-44 44 15-9 1 2-2 8 26-2 50-18 70-34 12-45-69-52-101-65-15 3 18 38 19 52 5 6 1 27 8 27zm15 182c-7 10-34 30-25 41 14-7 28-13 38-24 3 5 12-4 7-9-12-20-18-38-32-6-1 7 10-2 12-2zm-76 89c25-24 24-60 43-86-9 39-13 65 11 8 14-39-9-72-12-111-14 11-44 45-44 69-1 44-27 83-26 129-3 25 21-1 28-9zM710 167c0 4 2 17 7 15 2-5-1-15-7-15zm-51 126c12 10 30 20 45 15-10-11-30-16-45-15zm83 92c4 11 30 12 42 10-11-7-31-26-42-10zm76-62c-10 2-7 26-18 34-6 10-18 5-26 9 13 23 55 22 78 36 9-23-20-59-34-79zM553 441c-5-1-8 11-1 9 1-2 3-6 1-9zm8 57c8 17 19 38 31 51 1-19-12-46-31-51zM238 766c6-1 18 1 24-3-3-9-34-3-24 3zm215-32c-11 4-19 11-20 23 25 5 58-7 85-8 40-1 17-13-5-22-18-9-42 3-54-3-17-4-28 9-6 10zm78-23c-6-7-18-19-28-14-6 11 25 30 28 14zm11 48c-3 0 1 0 0-1v1zm-30 5c9 2 20-2 28-5-9 2-21 0-28 5zm-15 2c0 3 5 2 5 0s-4-2-5 0zm-112-43c19-3 41-2 58-8-54-23-117-32-175-41 7 9 6 23 18 28 6 2 1 15 8 14 29-32 56 22 91 7zm34 32c8-13 11-23-6-29-31 0-62 11-85-14-10-7-13 7-21 10-17 9 23 15 31 18 25 5 56 25 81 15zm-21 13c-11-3-54-18-36 5 9 5 27-1 36-5zm-26 11c10 22 55 11 76 8 106-32-42-16-76-8zm107 12c-2 11 16 7 21 0 0-6-16 0-21 0zm2-6c8 0 19 2 26-5-1-7-23 2-26 5zm31-7c-1 4 3 3 5 2 2-3-4-4-5-2zm19-7c2 6 16-1 21-3-1-5-16 2-21 3zm-1-41c15 13 29 13 42 10-2-5-37-18-42-10zm45 4c0 3 9 8 11 4-1-4-8-5-11-4zm-58-90c-11 3-20 15-30 20 4 11 3 29 19 27 27-2 33 38 43 3 2 5-5 22 5 22 17-6 31 9 48 6 5-43-49-67-85-78zm59 7c0-3-2-12-5-8 0 3 2 10 5 8zm28 38c-1 10 6 38 21 39 6-11-12-32-21-39zm31-18c-18-13-28-18-28-42-13-34-2-42-35-15-1 34 31 54 54 72 13 34 47 47 69 73 1-42-30-64-60-88zm92-106c-3-3-4-4-6-10-1-6-13-6-9-8 9-13 12 23 25 16 23 0 36 14 20-17-5-10 11-18 6-26-16-11-39-17-53-28 4-15-34-18-41-33-7 5-11 26-14 37-15 60-40 146 37 173 44 26 53 24 67-26 3-11-8-25 8-29 35-26-11-55-40-49zm-480 879c5 7 19 1 25-3 3-9-21 0-25 3zm418 467c-7 1-9 22-1 18 1-5 5-15 1-18zm805-456a3 3 0 00-6-2c-2 3 5 6 6 2zm-36-26c-1-4-2-6-6-5-9 2 1 9 6 5zm-9-15a7 7 0 00-9 4c-1 8 15 1 9-4zm-20-9c-35-7-72-12-107-18-85 8 153 58 107 18zm-42 69c60 0-42-52-59-50 1 14 18 22 25 34-4 4 4 14 11 13 13 4 25 16 40 16 11 0 9-14-2-13h-15zm-47-57c10 10 32 18 46 20-6-12-33-23-46-20zm-30-55c-8-9-28-15-39-13 7 8 28 13 39 13zm-54 77c7 2 12-7 6-12-5-3-11 9-6 12zm-2-58c7 0 3-11-3-10-6 2 0 9 3 10zm-9 69c3 14 21-11 5-7a9 9 0 00-5 7zm-8-21c0 8 12 1 10-6-3-5-8 2-10 6zm-11 8c-16 5-25 27-3 27 6-7 20-22 3-27zm-34 70c2 11 30-18 32-27-13-2-22 20-32 27zm8-72c6-17-28-14-42-25-20-5-39-16-59-22-8 3 1 14-5 20-5-30-39-45-65-57-11 25 21 59 44 71-38-16-42-41-40 17 6 10 59 56 56 23 3-13 0-36 2-44 11 17-6 33 6 54 4 6-13 3-6 13 17 30 57-5 80-17 14-9 35-14 18-30-8-15 5 8 11-2zm-206 53c-29-5-53 25-81 31-12 3-18 14-13 25-7 0-8 21-1 24 15 19 113-65 95-80zm-95 86c-8 5 4 15 8 5 2-4-5-6-8-5zm113-204c-8-34-13 2-12 16-9 21-74 80-64 94-109 81 127-3 76-110zm84 3c3 12 24 1 28 11-5 5-16-6-22-1 15 10 47 27 65 24-1-13-11-19-22-17 0-4 3-9 8-8 10-15-19-40-32-37-45-54-32-15-25 28zm62-26c-7-7-23-18-33-15 5 7 25 23 33 15zm33 69c4-16-33-29-14-8-7 5 12 14 14 8zm34-23c-19-4-41-24-60-20-16 17 13 16 20 25 12 16 51 25 40-5zm-48-30c8 11 34 19 47 17-5-17-32-24-47-17zm15-9c-20-12-22 9 1 4 1-1 0-3-1-4zm-34-8c4 4 9 11 15 6 3-7-11-12-15-6zm-170-61c22 40 61 69 100 89 9-1 3-11-3-12 0-6 5-23 2-35 1-17-110-61-99-42zm19 179c-6 1-28 18-16 21 11 1 19-12 16-21zm52 49c6-9-10-25-13-36-21-49-27 23-43 41 15 11 39-4 56-5zm12-2c42-14-64-94-19-31 5 10 8 27 19 31zm9 16c15 8 5-26-2-7-1 2 0 5 2 7zm131-104c5-5-16-10-12-2 4 2 8 4 12 2zm7 12c3-8-12-6-13 1-2 11 10 5 13-1zm27 27c-1-15-18 4-18 11 4 10 15-7 18-11zm-22-37c9 0 22-13 24-22-10-23-29 13-24 22zm17-90c7-4-28-41-29-29-11 32 1 26 29 29zm-133-79c3-5-10-4-13-4-3 4 10 5 13 4zm-50 3l83 42c22 13 39 7 58 23 15-8 10-39-11-36-9-14-27-22-43-21 1 6 2 9 0 16-6 16 10-23-39-22-12 0-66-20-48-2zm22-13c-8-6-25-13-35-12 7 8 24 17 35 12zm-54-6c-1 4 15 12 11 4-3-3-8-6-11-4zm4-5c-7-21-43-26-62-33 15 15 41 33 62 33zm-58 55c2-4-6-14-11-14 1 5 6 12 11 14zm-88 88c0 9 6 24 19 20-16 15 17 50 8 76-6 1 1-28-7-36-8-23-16-43-30-63-16 0-33 24-29 39 3 4 7 19 1 11-45-36-3 27 20 32 1 8-29-12-32-16-31-47-40 10-16 35-12-7-14-36-25-34-41 29 16 62 44 70 13 12 45 24 59 6 5-13 20-26 5-36 27 5 64-62 81-85 6-7 1-12-7-12 6 0 13 1 15-6 2-16 15-40-4-49-3-5-14-16-17-7-2 11 3 24-7 33-10 8 7-17 1-24 1-11-9-43-22-33-9 30-68 49-57 79zm-13 226c3-19-38-31-50-47-12-13-28-8-42 0l7-19c-1 17 30 6-9-18-13-12-12 28-6 34-24 15 3 41 11 58 20 46 59 6 89-8zm-91 27c-3 3 0 10 4 10 5-1 0-10-4-10zm-10-192c-5 0-12 7-7 12 4 0 13-9 7-12zm-13 24c-6 1 0 14 5 9 3-3 0-9-5-9zm36 54c16 22 47 30 69 13-30-15-67-38-95-55-8 16 19 29 26 42zm-3-81c-4-2-25 11-16 14 6-4 15-7 16-14zm-9-50c-13-8-30-31-37-6-6 23-5 69 29 52 46-7 50-25 8-46zm-33 66c-4 3 3 9 6 4-1-3-3-6-6-4zm48-195c-17 1-46 20-54 38-3 7-5 23 5 14 16-17 38-31 49-52zm-51 273c2-10 8-28-3-34-16-3-8 37 3 34zm-1-49c-3 1-1 8 3 8 5-1 1-8-3-8zm14 71c12-17-6-74-10-23 2 6 1 28 10 23zm69-5c0 14 31 25 42 37 27 12-28-40-42-37zm59 13c3-11 5-28-11-27-8 3-47 5-32 16 13 2 32 19 43 11zm-1 23c8 3 2-20-5-12-4 4 1 10 5 12zm-49-170c8-2 4-17-3-8-4 2 0 8 3 8zm88-104c-8-1-14 11-23 11-3-9-20-1-21 6-26 65 34 6 44-17zm-53 50c0-7 5-21-5-24 9-11 16-24 27-34 12-9 3 1-2 6 4 11 45-14 42-24-4-18-23 6-20-1 15-11 4-26-4-38-32 13-62 54-95 74 0 16 42 52 57 41zm-30 20c7 6 25-2 20-12-8-6-17-12-26-11-14-23-23-31-31-3-8 35 24 81 37 26zm-79-24c-11 15 24 29 34 38 16 6-3-39 3-51-8-13-27 9-37 13zm35-169c-30-20-68 32-81 60 29 6 57-42 81-60zm-108 329c15 27 34-11 20-27-10-1-14 20-20 27zm-17-161c23 0 40-25 31-45-20 2-52 27-31 45zm23-106c-9 7-102 18-65 20 19-3 61 0 65-20zm-99 119c-30 6-63 22-94 31 22 6 61 2 77-10 7 15 24-15 17-21zm-25 35c3 2 9 0 10-3-1-3-10-1-10 3zm-12-31c-3-5-18 2-23 6 5 4 18-3 23-6zm96-1c8-7 13-34 7-41-26 12-63 19-65 54 11 11 41-10 57-13zm7-78c-14-3-28 14-41 20 2 9 33-14 41-20zm-49 4c-2-7-21 2-27 6 3 7 24 0 27-6zm-19 16c-2-8-22 0-25 6 4 7 19-4 25-6zm-29 20c14-3 33-4 44-13-10-4-24 8-35 5-8-4-20 2-9 8zm-4 13c46-20-22-7-35 2 2 13 26 1 35-2zm-43 19c27-31-51 11-55 24 13 5 38-20 55-24zm-157 135c13 5 53-44 33-39 11-10 24-21 34-34 8-26-87 10-85 36-9 14-30 82 0 74 12-9 28-27 18-37zm-1 32c22 8 59-12 79-23-23-9-76-13-79 23zm220-126c-11 2-20 14-31 8 36-19-12-7-28-9-51-8-83 22-114 57-50 56-8 39 38 38 36-8 61-35 92-50 16-8 46-25 43-44zm-31 66c31 5 76-21 101-43-29 10-70 29-101 43zm42-73c-41 55 16 15 40-1 69-39-21-10-40 1zm112 47c-4-13 12-43-2-49-16 8-37 22-38 41-8 0-12 8-10 15 11 32 9-32 16 31 15 1 32-22 34-38zm-10 30c-8 0-32 21-15 22 7-4 21-14 15-22zm78 182c-18 0-33 19-51 15-12-2 41-13 50-19 9-16-6-39-12-54-13 10-17 43-38 51 55-85-7-19-47-1-3 2-13 13-8 6 28-33 112-51 65-107-3-7-8-13-12-19 6-15-11-9-12 2-8 1-14-13-23-8-14 14-24 30-16 51-9-6-6-31-20-12-74 65 74 242 91 195 24-19 47-69 33-100zm-48 211c8-2 25-20 30-27-1-33-34 16-30 27zm31-45c-6 12 12 11 12 0-1-5-9-2-12 0zm-4-5c10 6 29-19 33-29 2-28-28 20-33 29zm29-119c1 12-32 46-11 48-29 9-28 24 2 9 12-5 13-14-2-9 27-10 50-30 63-55-23-45-60-67-52 7zm119-77c13-34-102 13-89 26 11 8 24 43 39 30 19-17 40-45 50-56zm-15 102c21-12 25-55 22-79-11-9-4 14-5 19-5 6-2-10-4-12-16 1-32 31-35 49 18 36 20-17 22 23zm11 34c-52-91-37 27 66 49 5-10-77-87-66-49zm64-27c-22-21-16-74-45-82-6 22-4 45-17 65-18 24 24 35 37 51 27 24 41 58 81 61 22 0-14-62-31-64 10-23-23-49-35-69-11 4 6 28 10 38zm-37-98c7-2 1-11-3-6-2 3 0 8 3 7zm69 59c8-11-47-62-60-57-17 18 44 52 60 57zm-88-103c-1 37 18 12 31-3 3-14-29-8-31 3zm59-44c-9 12-24 11-35 26 3 13 20-4 25-5 9-8 31-44 10-21zm143-37c-18-9-18 25-7 32-14-5-18-23-34-8 18-35-26 2-42-10-30 0-42 33-59 53 11 15 48 1 67 4 35 3 69 1 97-23 2-16-13-35-22-48zm98-19c10-11 21-23 3-32-10 3-75 33-66 44-44-16-20 22-8 43 27 18 52-39 71-55zm-74 89c-26 29-22 50 14 22 3-6-5-35-14-22zm52 60c-8 2-4 19 4 13 1-4 3-14-4-13zm6-56c-15 5-26 16-31 24 6 9 8 27 18 30 20-16 14-23-6-33 34 30 70-45 87-71-2-11-57 43-68 50zm46-93c-23 21-64 37-70 74 0 3-5 14-5 6 1-6 11-21 3-22-19 9-25 35-3 44 36-17 67-47 96-76 6-8-13-28-21-26zm8-9c-6 10 10 13 12 21 3 13 12 1 16-5 6-14-19-38-28-16zm27-29c-17 3-6 36 4 26-1-7 5-25-4-26zm82 16c-5-19-23-41-40-53-9-2-43-22-36-3 7 41 39 51 76 56zm-66 30c2 8 20 30 27 17 0-8-20-28-27-17zm29-38c-18 0 17 18 11 28-8-13-18-26-33-30-20 12 104 121 106 79-11-38-43-70-84-77zm90 78c-11 6 1 25 9 16-2-4-2-18-9-16zm20 23c7-4-4-12-8-15-10 0 0 18 8 15zm-52-80c-5 9 15 21 20 28 7 29 25 17 27-7-7-15-33-14-47-21zm21-53c6 25 57 28 78 28-20-17-50-30-78-28zm64 14c2 4 30 15 24 4-6-3-18-9-24-4zm8-9c3 2 13 7 13 0-3-12-25-11-13 0zm-436-771c0 1 3-1 2-3a22 22 0 01-2 3zm228 213a28 28 0 003 3l-3-3zm11-319c-1-2-2 2-2 4a3 3 0 002-4zm-189-189c0-1 0-4-1-3a8 8 0 011 3zm-355 75a9 9 0 00-1-5c1 1-1 7 1 5zm-2 129c-2 4-6 4-7 8 3-3 10-5 7-8zm-83-192a6 6 0 01-4 2c0 2 5-2 4-2zm-61 215a25 25 0 00-5-12c3 4 2 9 5 12zm-425 56l-1-5c-1 3-1 3 1 5zm960 98h1z"/>
</svg>
